<?xml version="1.0" standalone="no"?>
<!DOCTYPE svg PUBLIC "-//W3C//DTD SVG 20010904//EN"
 "http://www.w3.org/TR/2001/REC-SVG-20010904/DTD/svg10.dtd">
<svg version="1.0" xmlns="http://www.w3.org/2000/svg"
 width="1536.000000pt" height="1024.000000pt" viewBox="0 0 1536.000000 1024.000000"
 preserveAspectRatio="xMidYMid meet">

<g transform="translate(0.000000,1024.000000) scale(0.100000,-0.100000)"
fill="#000000" stroke="none">
<path d="M9782 5933 l-324 -3 5 -98 c7 -114 5 -102 17 -102 5 0 6 7 3 17 -4
10 -2 14 4 10 6 -4 13 9 17 34 4 23 17 51 31 65 22 22 32 24 115 24 l90 0 0
-364 0 -365 -22 -15 c-12 -9 -39 -16 -60 -16 -27 0 -38 -4 -38 -15 0 -13 25
-15 165 -15 133 0 165 3 165 14 0 8 -15 16 -36 19 -67 11 -64 -8 -64 394 l0
365 85 -3 c100 -5 111 -13 128 -90 9 -37 18 -55 30 -57 15 -3 17 7 17 102 0
58 -1 105 -2 104 -2 -2 -149 -4 -326 -5z m221 -40 c-7 -2 -19 -2 -25 0 -7 3
-2 5 12 5 14 0 19 -2 13 -5z m94 -40 c-3 -10 -5 -4 -5 12 0 17 2 24 5 18 2 -7
2 -21 0 -30z m-602 -44 c-6 -45 -15 -49 -15 -6 0 21 4 37 9 37 5 0 8 -14 6
-31z m262 -462 c-1 -84 -3 -12 -3 158 0 171 2 239 3 152 2 -87 2 -227 0 -310z
m330 421 c-3 -7 -5 -2 -5 12 0 14 2 19 5 13 2 -7 2 -19 0 -25z m-380 -664 c-3
-3 -12 -4 -19 -1 -8 3 -5 6 6 6 11 1 17 -2 13 -5z m40 0 c-3 -3 -12 -4 -19 -1
-8 3 -5 6 6 6 11 1 17 -2 13 -5z m156 -1 c-13 -2 -33 -2 -45 0 -13 2 -3 4 22
4 25 0 35 -2 23 -4z"/>
<path d="M6560 5915 c0 -9 9 -15 24 -15 13 0 34 -9 47 -19 l24 -19 0 -352 0
-352 -24 -19 c-13 -10 -34 -19 -47 -19 -15 0 -24 -6 -24 -15 0 -13 22 -15 163
-13 99 2 162 7 162 13 0 6 -20 13 -44 16 -77 10 -81 23 -81 228 l1 176 89 -95
c49 -52 94 -94 100 -92 5 1 9 -2 8 -7 -2 -5 46 -61 106 -125 l108 -116 79 0
c43 0 79 4 79 9 0 5 -12 17 -27 26 -16 10 -118 110 -229 223 -148 151 -205
203 -215 196 -8 -4 25 30 72 76 47 47 72 74 55 60 -24 -19 -22 -16 9 18 37 40
61 59 35 27 -7 -8 -8 -15 -4 -15 5 0 48 38 94 85 71 72 94 88 138 101 28 9 52
20 52 25 0 5 -45 9 -101 9 -57 0 -98 -4 -95 -9 9 -14 -60 -94 -213 -246 l-141
-140 0 152 c0 83 -2 157 -3 165 -2 7 -2 10 0 6 2 -3 15 5 28 18 13 13 35 24
48 24 13 0 32 7 43 15 17 13 1 14 -148 15 -143 0 -168 -2 -168 -15z m47 -1
c-3 -3 -12 -4 -19 -1 -8 3 -5 6 6 6 11 1 17 -2 13 -5z m583 -27 c0 -2 -15 -16
-32 -33 l-33 -29 29 33 c28 30 36 37 36 29z m-443 -109 c-2 -13 -4 -5 -4 17
-1 22 1 32 4 23 2 -10 2 -28 0 -40z m-70 10 c-3 -7 -5 -2 -5 12 0 14 2 19 5
13 2 -7 2 -19 0 -25z m0 -155 c-2 -27 -3 -5 -3 47 0 52 1 74 3 48 2 -27 2 -69
0 -95z m0 -75 c-3 -8 -6 -5 -6 6 -1 11 2 17 5 13 3 -3 4 -12 1 -19z m274 -105
c13 -16 12 -17 -3 -4 -10 7 -18 15 -18 17 0 8 8 3 21 -13z m-274 -50 c-3 -10
-5 -2 -5 17 0 19 2 27 5 18 2 -10 2 -26 0 -35z m0 -65 c-3 -7 -5 -2 -5 12 0
14 2 19 5 13 2 -7 2 -19 0 -25z m0 -50 c-3 -7 -5 -2 -5 12 0 14 2 19 5 13 2
-7 2 -19 0 -25z m150 -184 c-3 -3 -12 -4 -19 -1 -8 3 -5 6 6 6 11 1 17 -2 13
-5z m480 0 c-3 -3 -12 -4 -19 -1 -8 3 -5 6 6 6 11 1 17 -2 13 -5z"/>
<path d="M7392 5918 c3 -7 15 -15 29 -16 13 -2 32 -11 42 -19 16 -15 17 -46
17 -370 0 -340 -1 -354 -20 -373 -11 -11 -31 -20 -45 -20 -16 0 -25 -6 -25
-15 0 -12 20 -15 120 -15 95 0 120 3 120 14 0 7 -14 16 -31 20 -47 9 -58 31
-59 116 0 52 -3 70 -10 60 -7 -11 -10 -4 -10 25 0 22 4 35 8 28 4 -6 7 31 7
82 0 51 -2 92 -5 90 -3 -2 -5 8 -4 23 1 15 2 86 3 157 l1 130 155 -350 c86
-192 160 -360 165 -373 20 -46 42 -21 98 108 148 348 243 584 238 597 -3 8 -2
12 3 8 5 -3 12 1 15 7 4 7 4 -5 1 -27 -3 -22 -5 -176 -5 -342 0 -290 -1 -304
-20 -323 -11 -11 -33 -20 -50 -20 -20 0 -30 -5 -30 -15 0 -13 23 -15 149 -15
123 0 150 3 155 15 4 11 -2 15 -24 15 -17 0 -39 9 -50 20 -20 20 -21 30 -18
375 2 251 6 357 15 366 6 6 26 14 44 18 18 4 34 12 37 19 3 10 -22 12 -109 10
l-112 -3 -30 -70 c-27 -64 -44 -161 -26 -150 4 3 5 -5 1 -17 -5 -21 -6 -21
-13 -2 -4 10 -5 30 -2 44 3 14 3 23 1 20 -6 -5 -149 -341 -185 -433 -11 -27
-23 -48 -29 -46 -8 1 -202 428 -274 603 l-24 56 -109 0 c-82 0 -108 -3 -105
-12z m995 -4 c-3 -3 -12 -4 -19 -1 -8 3 -5 6 6 6 11 1 17 -2 13 -5z m-216
-131 c-12 -20 -14 -14 -5 12 4 9 9 14 11 11 3 -2 0 -13 -6 -23z m-445 -158 c8
-19 12 -35 10 -35 -6 0 -46 89 -46 99 1 9 19 -24 36 -64z m378 19 c4 -10 2
-13 -6 -8 -8 5 -9 1 -4 -12 5 -14 4 -16 -4 -8 -6 6 -8 18 -4 27 8 21 10 21 18
1z m-76 -149 c-6 -14 -13 -23 -15 -21 -5 5 15 46 22 46 3 0 -1 -11 -7 -25z
m-48 -168 c0 -7 -4 -6 -11 3 -9 12 -10 11 -6 -6 3 -13 -1 -21 -9 -21 -7 0 -12
3 -10 6 2 3 6 14 9 24 7 19 27 14 27 -6z m-453 -109 c-2 -13 -4 -3 -4 22 0 25
2 35 4 23 2 -13 2 -33 0 -45z m0 -50 c-3 -8 -6 -5 -6 6 -1 11 2 17 5 13 3 -3
4 -12 1 -19z m626 -65 c-7 -2 -19 -2 -25 0 -7 3 -2 5 12 5 14 0 19 -2 13 -5z
m145 0 c-10 -2 -28 -2 -40 0 -13 2 -5 4 17 4 22 1 32 -1 23 -4z"/>
<path d="M8497 5924 c-12 -12 4 -24 32 -24 16 0 36 -9 47 -21 18 -20 19 -41
19 -369 0 -328 -1 -349 -19 -369 -11 -12 -30 -21 -43 -21 -14 0 -23 -6 -23
-15 0 -13 40 -15 299 -15 l298 0 7 61 c3 34 6 82 6 106 0 37 -3 44 -17 41 -12
-2 -19 -14 -21 -33 -10 -99 -43 -118 -218 -123 -112 -3 -133 -1 -147 13 -15
15 -17 53 -17 356 0 212 4 348 10 359 6 11 28 24 50 30 76 21 42 30 -108 30
-82 0 -152 -3 -155 -6z m190 -231 c-2 -32 -3 -6 -3 57 0 63 1 89 3 58 2 -32 2
-84 0 -115z m0 -170 c-2 -16 -4 -3 -4 27 0 30 2 43 4 28 2 -16 2 -40 0 -55z
m0 -55 c-3 -8 -6 -5 -6 6 -1 11 2 17 5 13 3 -3 4 -12 1 -19z m0 -105 c-2 -16
-4 -3 -4 27 0 30 2 43 4 28 2 -16 2 -40 0 -55z m0 -115 c-2 -18 -4 -6 -4 27 0
33 2 48 4 33 2 -15 2 -42 0 -60z m420 10 c-3 -8 -6 -5 -6 6 -1 11 2 17 5 13 3
-3 4 -12 1 -19z m-314 -135 c-7 -2 -19 -2 -25 0 -7 3 -2 5 12 5 14 0 19 -2 13
-5z m145 0 c-10 -2 -28 -2 -40 0 -13 2 -5 4 17 4 22 1 32 -1 23 -4z m-370 -20
c-10 -2 -26 -2 -35 0 -10 3 -2 5 17 5 19 0 27 -2 18 -5z m265 0 c-29 -2 -78
-2 -110 0 -32 2 -8 3 52 3 61 0 87 -1 58 -3z m224 0 c-20 -2 -52 -2 -70 0 -17
2 0 4 38 4 39 0 53 -2 32 -4z"/>
<path d="M10190 5922 c0 -12 24 -22 51 -22 10 0 28 -9 39 -20 19 -19 20 -33
20 -367 0 -192 -4 -353 -8 -359 -12 -19 -49 -34 -81 -34 -21 0 -31 -5 -31 -15
0 -13 25 -15 165 -15 133 0 165 3 165 14 0 8 -16 16 -39 20 -68 10 -66 0 -69
404 l-3 365 94 -5 c64 -4 106 -11 132 -24 91 -45 102 -189 20 -271 -21 -20
-73 -40 -127 -48 -27 -4 -48 -13 -48 -19 0 -12 246 -383 278 -418 13 -16 37
-18 209 -18 158 0 193 3 193 14 0 8 -15 17 -34 20 -58 11 -60 45 -9 162 l36
84 166 0 167 0 13 -32 c7 -18 24 -66 38 -106 24 -69 24 -74 8 -92 -9 -10 -26
-20 -38 -22 -11 -2 -22 -9 -25 -15 -3 -10 30 -13 143 -13 113 0 146 3 142 13
-2 6 -11 11 -20 9 -43 -8 -66 39 -238 470 -73 186 -116 283 -122 275 -6 -8 -7
-6 -3 6 3 10 3 29 0 43 -5 19 -13 24 -38 24 l-31 0 -98 -248 c-64 -162 -96
-255 -92 -267 5 -14 4 -16 -2 -7 -7 8 -24 -26 -58 -110 -26 -68 -52 -128 -57
-135 -6 -7 -7 -17 -4 -22 4 -5 1 -13 -5 -17 -8 -4 -9 -3 -5 4 4 7 3 12 -3 12
-5 0 -13 -4 -16 -10 -3 -5 -21 -10 -40 -10 -43 0 -80 31 -140 120 -27 38 -53
67 -58 63 -6 -3 -7 -1 -3 5 3 6 -21 49 -54 96 -58 82 -83 109 -60 65 7 -11 10
-23 7 -25 -2 -2 -9 7 -15 21 -14 31 -6 39 68 69 30 12 54 27 53 33 -1 6 10 21
25 34 l27 24 -24 -27 c-14 -16 -20 -28 -14 -28 13 0 37 28 57 68 23 44 23 149
1 197 -11 22 -35 46 -64 63 l-46 27 -247 3 c-153 2 -248 0 -248 -6z m510 -22
c8 -5 11 -10 5 -10 -5 0 -17 5 -25 10 -8 5 -10 10 -5 10 6 0 17 -5 25 -10z
m60 -35 c13 -14 21 -25 17 -25 -3 0 -18 11 -33 25 -15 14 -23 25 -17 25 5 0
20 -11 33 -25z m-373 -497 c-1 -95 -3 -20 -3 167 0 187 2 265 3 173 2 -92 2
-245 0 -340z m-70 400 c-2 -13 -4 -3 -4 22 0 25 2 35 4 23 2 -13 2 -33 0 -45z
m1060 -150 c37 -95 68 -177 68 -183 0 -10 -275 -15 -275 -5 -1 6 134 360 137
360 1 0 32 -78 70 -172z m-1060 10 c-2 -18 -4 -6 -4 27 0 33 2 48 4 33 2 -15
2 -42 0 -60z m922 41 c1 8 4 12 7 8 3 -3 1 -14 -5 -24 -8 -14 -11 -15 -11 -3
0 9 -6 6 -16 -10 -10 -17 -13 -18 -9 -5 4 11 10 29 13 39 5 20 5 20 13 0 4
-11 8 -13 8 -5z m235 -55 c3 -8 2 -12 -4 -9 -6 3 -10 10 -10 16 0 14 7 11 14
-7z m-44 -79 c0 -5 -5 -3 -10 5 -5 8 -10 20 -10 25 0 6 5 3 10 -5 5 -8 10 -19
10 -25z m-845 5 c-3 -5 -12 -10 -18 -10 -7 0 -6 4 3 10 19 12 23 12 15 0z
m859 -36 c3 -8 2 -12 -4 -9 -6 3 -10 10 -10 16 0 14 7 11 14 -7z m-273 -31
c-12 -20 -14 -14 -5 12 4 9 9 14 11 11 3 -2 0 -13 -6 -23z m369 -28 c0 -5 -5
-3 -10 5 -5 8 -10 20 -10 25 0 6 5 3 10 -5 5 -8 10 -19 10 -25z m39 -95 c0 -8
-8 5 -19 29 -11 24 -20 46 -20 50 1 12 39 -64 39 -79z m-254 50 c3 -6 -4 -10
-17 -10 -18 0 -20 2 -8 10 19 12 18 12 25 0z m-138 -6 c-3 -3 -12 -4 -19 -1
-8 3 -5 6 6 6 11 1 17 -2 13 -5z m231 -1 c-10 -2 -28 -2 -40 0 -13 2 -5 4 17
4 22 1 32 -1 23 -4z m-1101 -60 c-3 -10 -5 -2 -5 17 0 19 2 27 5 18 2 -10 2
-26 0 -35z m784 -30 c-12 -20 -14 -14 -5 12 4 9 9 14 11 11 3 -2 0 -13 -6 -23z
m-784 -15 c-3 -8 -6 -5 -6 6 -1 11 2 17 5 13 3 -3 4 -12 1 -19z m764 -12 c6 3
3 -11 -5 -31 -9 -21 -16 -40 -16 -44 0 -3 -5 1 -10 11 -13 22 -1 56 12 36 7
-9 8 -3 4 17 -3 17 -3 24 0 17 3 -6 10 -9 15 -6z m-41 -79 c0 -7 -7 -22 -15
-33 -13 -17 -13 -16 -3 14 13 34 18 40 18 19z m-723 -19 c-3 -8 -6 -5 -6 6 -1
11 2 17 5 13 3 -3 4 -12 1 -19z m528 -38 c10 -11 16 -20 13 -20 -3 0 -13 9
-23 20 -10 11 -16 20 -13 20 3 0 13 -9 23 -20z m700 -19 c-3 -5 7 -12 22 -14
26 -4 26 -4 -4 -6 -31 -1 -41 7 -26 22 9 10 15 8 8 -2z m-714 -19 c-13 -2 -27
0 -32 5 -6 6 3 7 23 4 28 -4 29 -6 9 -9z m-528 1 c-13 -2 -33 -2 -45 0 -13 2
-3 4 22 4 25 0 35 -2 23 -4z m584 1 c-3 -3 -12 -4 -19 -1 -8 3 -5 6 6 6 11 1
17 -2 13 -5z m66 -1 c-7 -2 -21 -2 -30 0 -10 3 -4 5 12 5 17 0 24 -2 18 -5z
m155 0 c-10 -2 -28 -2 -40 0 -13 2 -5 4 17 4 22 1 32 -1 23 -4z"/>
<path d="M11600 5921 c0 -6 5 -13 10 -16 6 -3 10 -1 10 4 0 6 10 11 23 10 19
0 19 -1 4 -8 -15 -5 -12 -9 15 -19 18 -6 39 -21 46 -32 7 -11 76 -181 153
-378 160 -404 154 -392 175 -392 18 0 57 84 57 123 0 15 3 23 7 17 3 -6 62
130 130 301 69 172 133 323 144 336 10 14 29 29 42 33 53 21 22 30 -96 30 -72
0 -120 -4 -120 -10 0 -5 12 -12 28 -16 48 -10 51 -13 58 -38 4 -18 -17 -85
-76 -236 -44 -115 -78 -215 -74 -222 4 -6 3 -8 -4 -5 -6 4 -21 -24 -39 -73
l-29 -80 -117 295 c-64 162 -117 306 -117 319 0 24 16 36 49 36 9 0 26 7 37
15 17 13 1 14 -148 15 -99 0 -168 -4 -168 -9z m669 -200 c-6 -18 -14 -30 -17
-27 -2 3 1 19 8 36 16 40 23 33 9 -9z m-396 -21 c3 -11 2 -18 -3 -15 -4 3 -10
14 -13 25 -3 11 -2 18 3 15 4 -3 10 -14 13 -25z m400 -30 c-3 -12 -8 -19 -11
-16 -5 6 5 36 12 36 2 0 2 -9 -1 -20z m-52 -71 c-5 -13 -10 -19 -10 -12 -1 15
10 45 15 40 3 -2 0 -15 -5 -28z m-20 -56 c-12 -20 -14 -14 -5 12 4 9 9 14 11
11 3 -2 0 -13 -6 -23z m-215 -140 c-4 -4 -36 73 -35 85 0 4 9 -13 20 -37 11
-24 18 -46 15 -48z m205 64 c-10 -9 -11 -8 -5 6 3 10 9 15 12 12 3 -3 0 -11
-7 -18z m-17 -13 c3 -8 2 -12 -4 -9 -6 3 -10 10 -10 16 0 14 7 11 14 -7z
m-154 -129 c0 -5 -5 -3 -10 5 -5 8 -10 20 -10 25 0 6 5 3 10 -5 5 -8 10 -19
10 -25z m100 15 c-6 -11 -13 -20 -16 -20 -2 0 0 9 6 20 6 11 13 20 16 20 2 0
0 -9 -6 -20z m11 -27 c-12 -20 -14 -14 -5 12 4 9 9 14 11 11 3 -2 0 -13 -6
-23z m-104 -25 c-3 -8 -6 -5 -6 6 -1 11 2 17 5 13 3 -3 4 -12 1 -19z"/>
<path d="M12510 5921 c0 -9 11 -14 63 -27 21 -5 21 -5 3 10 -25 20 -8 20 18 1
11 -8 14 -15 8 -15 -9 0 -10 -5 -2 -19 6 -13 10 -148 10 -370 l0 -350 -22 -15
c-12 -9 -35 -16 -50 -16 -18 0 -28 -5 -28 -15 0 -13 40 -15 300 -15 l300 0 4
23 c3 12 8 57 11 100 6 72 5 79 -11 75 -12 -2 -21 -17 -26 -43 -11 -49 -41
-82 -87 -95 -52 -14 -254 -13 -269 2 -8 8 -12 62 -12 175 l0 163 113 0 c127 0
143 -7 156 -71 4 -18 12 -34 19 -37 9 -3 12 31 12 138 0 109 -3 141 -12 138
-7 -3 -14 -21 -16 -40 -5 -56 -24 -66 -127 -68 -49 -1 -102 -2 -117 -1 l-28 1
0 165 0 165 125 0 c165 0 182 -9 210 -107 3 -11 12 -24 20 -27 13 -4 15 10 15
89 l0 95 -290 0 c-173 0 -290 -4 -290 -9z m438 -28 c-10 -2 -28 -2 -40 0 -13
2 -5 4 17 4 22 1 32 -1 23 -4z m129 -15 c-3 -8 -6 -5 -6 6 -1 11 2 17 5 13 3
-3 4 -12 1 -19z m-450 -240 c-1 -40 -3 -10 -3 67 0 77 1 110 3 73 2 -37 2
-100 0 -140z m450 145 c-3 -10 -5 -4 -5 12 0 17 2 24 5 18 2 -7 2 -21 0 -30z
m-140 -249 c-3 -3 -12 -4 -19 -1 -8 3 -5 6 6 6 11 1 17 -2 13 -5z m-310 -136
c-2 -24 -4 -5 -4 42 0 47 2 66 4 43 2 -24 2 -62 0 -85z m377 56 c3 -8 2 -12
-4 -9 -6 3 -10 10 -10 16 0 14 7 11 14 -7z m103 -296 c-3 -8 -6 -5 -6 6 -1 11
2 17 5 13 3 -3 4 -12 1 -19z m-319 -35 c-10 -2 -26 -2 -35 0 -10 3 -2 5 17 5
19 0 27 -2 18 -5z m170 0 c-10 -2 -26 -2 -35 0 -10 3 -2 5 17 5 19 0 27 -2 18
-5z m137 -13 c4 -6 -37 -9 -117 -8 l-123 2 115 6 c63 3 116 7 117 8 1 1 5 -2
8 -8z m-508 -6 c-3 -3 -12 -4 -19 -1 -8 3 -5 6 6 6 11 1 17 -2 13 -5z m61 -1
c-10 -2 -26 -2 -35 0 -10 3 -2 5 17 5 19 0 27 -2 18 -5z m195 0 c-7 -2 -21 -2
-30 0 -10 3 -4 5 12 5 17 0 24 -2 18 -5z"/>
<path d="M13212 5918 c3 -7 23 -16 45 -21 29 -5 43 -15 52 -33 7 -17 11 -129
11 -358 0 -322 -1 -334 -21 -360 -15 -19 -30 -26 -55 -26 -24 0 -34 -5 -34
-15 0 -13 41 -15 309 -15 l309 0 7 68 c11 125 11 136 -5 140 -11 2 -19 -12
-27 -50 -14 -59 -36 -82 -91 -98 -48 -13 -248 -13 -273 0 -18 10 -19 25 -19
359 0 333 1 349 20 366 10 9 34 20 51 24 18 4 34 12 37 19 3 9 -35 12 -158 12
-124 0 -161 -3 -158 -12z m195 -561 c-1 -89 -3 -13 -3 168 0 182 2 254 3 162
2 -93 2 -241 0 -330z m-70 411 c-3 -8 -6 -5 -6 6 -1 11 2 17 5 13 3 -3 4 -12
1 -19z m458 -658 c-3 -5 -12 -10 -18 -10 -7 0 -6 4 3 10 19 12 23 12 15 0z
m-342 -7 c-34 -2 -93 -2 -130 0 -37 2 -9 3 62 3 72 0 102 -1 68 -3z m245 0
c-32 -2 -86 -2 -120 0 -35 2 -9 3 57 3 66 0 94 -1 63 -3z"/>
</g>
</svg>
