<?xml version="1.0" encoding="UTF-8"?>
<svg xmlns="http://www.w3.org/2000/svg" xmlns:xlink="http://www.w3.org/1999/xlink" width="113px" height="150px" viewBox="0 0 113 150" version="1.1">
<g id="surface1">
<path style=" stroke:none;fill-rule:nonzero;fill:rgb(64.705884%,64.705884%,65.098041%);fill-opacity:1;" d="M 55.765625 3.0625 C 56.5 3.171875 56.5 3.171875 56.886719 3.574219 C 57.292969 4.246094 57.46875 4.84375 57.65625 5.609375 C 57.730469 5.90625 57.804688 6.199219 57.882812 6.503906 C 57.960938 6.828125 58.039062 7.152344 58.117188 7.476562 C 58.203125 7.8125 58.285156 8.148438 58.371094 8.484375 C 58.589844 9.375 58.808594 10.261719 59.027344 11.152344 C 59.203125 11.859375 59.378906 12.570312 59.554688 13.28125 C 59.683594 13.800781 59.8125 14.324219 59.941406 14.847656 C 60.113281 15.53125 60.28125 16.214844 60.453125 16.894531 C 60.824219 18.378906 61.175781 19.855469 61.4375 21.359375 C 61.75 23.621094 61.75 23.621094 62.996094 25.421875 C 63.800781 25.761719 64.519531 25.917969 65.382812 26.050781 C 65.957031 26.183594 66.535156 26.316406 67.109375 26.453125 C 67.386719 26.511719 67.667969 26.574219 67.953125 26.636719 C 69.007812 26.898438 69.929688 27.296875 70.886719 27.804688 C 71.035156 27.882812 71.1875 27.964844 71.34375 28.046875 C 72.871094 28.875 74.359375 29.792969 75.824219 30.730469 C 77.628906 29.769531 79.394531 28.753906 81.140625 27.683594 C 81.382812 27.539062 81.621094 27.394531 81.867188 27.242188 C 83.148438 26.464844 84.425781 25.675781 85.695312 24.871094 C 85.945312 24.714844 86.199219 24.558594 86.457031 24.394531 C 86.9375 24.09375 87.421875 23.789062 87.898438 23.480469 C 89.140625 22.707031 89.996094 22.1875 91.476562 22.4375 C 91.964844 22.925781 91.964844 22.925781 92.09375 23.640625 C 92.046875 25.058594 91.128906 26.199219 90.390625 27.363281 C 90.148438 27.753906 90.148438 27.753906 89.898438 28.15625 C 89.550781 28.71875 89.203125 29.28125 88.851562 29.839844 C 87.988281 31.222656 87.140625 32.617188 86.296875 34.011719 C 86.023438 34.460938 85.75 34.910156 85.472656 35.355469 C 85.308594 35.628906 85.140625 35.902344 84.96875 36.1875 C 84.820312 36.429688 84.671875 36.671875 84.515625 36.921875 C 84.390625 37.132812 84.265625 37.34375 84.136719 37.5625 C 83.976562 37.8125 83.976562 37.8125 83.808594 38.074219 C 83.59375 38.542969 83.59375 38.542969 83.832031 39.019531 C 84 39.269531 84 39.269531 84.175781 39.527344 C 84.300781 39.71875 84.421875 39.910156 84.550781 40.109375 C 84.6875 40.3125 84.824219 40.519531 84.964844 40.730469 C 86.027344 42.414062 86.953125 44.078125 87.683594 45.929688 C 87.796875 46.203125 87.796875 46.203125 87.90625 46.484375 C 88.375 47.699219 88.726562 48.941406 89.054688 50.199219 C 89.101562 50.367188 89.144531 50.539062 89.191406 50.710938 C 89.300781 51.125 89.410156 51.539062 89.519531 51.953125 C 89.765625 52.011719 90.015625 52.070312 90.269531 52.132812 C 92.609375 52.691406 94.949219 53.257812 97.289062 53.820312 C 98.492188 54.113281 99.691406 54.402344 100.894531 54.691406 C 102.058594 54.96875 103.21875 55.25 104.378906 55.53125 C 104.820312 55.636719 105.261719 55.742188 105.707031 55.847656 C 106.328125 55.996094 106.949219 56.148438 107.566406 56.296875 C 107.839844 56.363281 107.839844 56.363281 108.121094 56.429688 C 110.492188 57.011719 110.492188 57.011719 111.289062 57.804688 C 111.402344 59.125 111.402344 59.125 110.972656 59.664062 C 110.269531 60.226562 109.402344 60.351562 108.539062 60.554688 C 108.335938 60.601562 108.128906 60.652344 107.917969 60.703125 C 107.238281 60.871094 106.558594 61.03125 105.882812 61.191406 C 105.410156 61.304688 104.941406 61.417969 104.46875 61.535156 C 103.230469 61.832031 101.992188 62.128906 100.753906 62.425781 C 99.488281 62.726562 98.226562 63.03125 96.960938 63.335938 C 94.480469 63.933594 92 64.53125 89.519531 65.121094 C 89.480469 65.265625 89.441406 65.410156 89.398438 65.554688 C 89.214844 66.21875 89.027344 66.878906 88.84375 67.539062 C 88.78125 67.765625 88.71875 67.992188 88.652344 68.222656 C 87.585938 72.007812 85.820312 75.277344 83.648438 78.535156 C 84.523438 80.199219 85.464844 81.820312 86.429688 83.429688 C 86.554688 83.632812 86.675781 83.835938 86.800781 84.046875 C 87.46875 85.152344 88.144531 86.246094 88.839844 87.335938 C 89.203125 87.902344 89.5625 88.476562 89.925781 89.046875 C 90.1875 89.460938 90.457031 89.871094 90.722656 90.28125 C 90.882812 90.539062 91.046875 90.792969 91.210938 91.054688 C 91.429688 91.394531 91.429688 91.394531 91.652344 91.742188 C 92.035156 92.597656 92.054688 93.21875 91.964844 94.144531 C 91.476562 94.632812 91.476562 94.632812 90.738281 94.753906 C 89.429688 94.710938 88.453125 93.929688 87.394531 93.230469 C 86.9375 92.9375 86.480469 92.648438 86.023438 92.355469 C 85.789062 92.207031 85.558594 92.058594 85.320312 91.902344 C 84.257812 91.226562 83.175781 90.582031 82.089844 89.9375 C 81.6875 89.699219 81.289062 89.460938 80.886719 89.222656 C 80.695312 89.109375 80.503906 88.996094 80.308594 88.875 C 79.402344 88.339844 78.5 87.796875 77.597656 87.257812 C 77.296875 87.078125 76.996094 86.898438 76.699219 86.71875 C 76.488281 86.59375 76.28125 86.46875 76.066406 86.339844 C 75.769531 86.503906 75.476562 86.667969 75.179688 86.828125 C 74.976562 86.941406 74.773438 87.050781 74.566406 87.167969 C 74.078125 87.441406 73.59375 87.726562 73.113281 88.015625 C 71.539062 88.957031 69.964844 89.757812 68.253906 90.425781 C 68.089844 90.492188 67.925781 90.558594 67.753906 90.625 C 66.566406 91.074219 65.355469 91.410156 64.128906 91.730469 C 63.960938 91.777344 63.789062 91.820312 63.617188 91.867188 C 63.199219 91.976562 62.785156 92.085938 62.371094 92.195312 C 62.308594 92.441406 62.25 92.691406 62.1875 92.945312 C 61.621094 95.28125 61.050781 97.617188 60.480469 99.953125 C 60.1875 101.15625 59.898438 102.355469 59.605469 103.558594 C 59.324219 104.71875 59.042969 105.875 58.757812 107.035156 C 58.652344 107.476562 58.542969 107.921875 58.4375 108.363281 C 58.285156 108.980469 58.132812 109.601562 57.984375 110.222656 C 57.9375 110.402344 57.894531 110.585938 57.851562 110.773438 C 57.269531 113.136719 57.269531 113.136719 56.5 113.902344 C 55.238281 114.035156 55.238281 114.035156 54.652344 113.65625 C 54.109375 112.914062 53.953125 112.074219 53.742188 111.191406 C 53.695312 110.992188 53.644531 110.789062 53.589844 110.582031 C 53.425781 109.914062 53.265625 109.25 53.101562 108.582031 C 52.988281 108.117188 52.875 107.65625 52.761719 107.195312 C 52.523438 106.222656 52.285156 105.253906 52.050781 104.285156 C 51.746094 103.039062 51.441406 101.792969 51.132812 100.550781 C 50.839844 99.367188 50.550781 98.179688 50.261719 96.996094 C 50.203125 96.769531 50.148438 96.542969 50.089844 96.308594 C 49.933594 95.667969 49.777344 95.027344 49.621094 94.386719 C 49.574219 94.195312 49.527344 94.003906 49.480469 93.808594 C 49.164062 92.496094 49.164062 92.496094 49.164062 91.953125 C 49.023438 91.9375 48.882812 91.921875 48.738281 91.90625 C 44.617188 91.3125 40.035156 89.449219 36.769531 86.855469 C 36.023438 86.257812 36.023438 86.257812 35.34375 86.445312 C 35.140625 86.574219 34.941406 86.699219 34.730469 86.828125 C 34.339844 87.042969 34.339844 87.042969 33.945312 87.265625 C 33.628906 87.449219 33.316406 87.632812 33.003906 87.820312 C 32.832031 87.921875 32.65625 88.023438 32.476562 88.132812 C 30.066406 89.5625 27.667969 91.019531 25.269531 92.472656 C 25 92.636719 24.734375 92.796875 24.457031 92.964844 C 23.832031 93.351562 23.210938 93.742188 22.59375 94.140625 C 21.71875 94.664062 21.296875 94.796875 20.300781 94.632812 C 19.566406 94.144531 19.566406 94.144531 19.421875 93.433594 C 19.492188 92.015625 20.402344 90.871094 21.140625 89.710938 C 21.304688 89.449219 21.464844 89.1875 21.632812 88.917969 C 21.980469 88.355469 22.328125 87.792969 22.679688 87.230469 C 23.546875 85.847656 24.390625 84.453125 25.238281 83.0625 C 25.511719 82.613281 25.785156 82.164062 26.058594 81.71875 C 26.226562 81.441406 26.394531 81.167969 26.566406 80.886719 C 26.714844 80.644531 26.863281 80.402344 27.015625 80.152344 C 27.140625 79.941406 27.265625 79.730469 27.394531 79.511719 C 27.5 79.339844 27.605469 79.164062 27.714844 78.988281 C 27.769531 78.839844 27.824219 78.691406 27.882812 78.535156 C 27.589844 77.925781 27.292969 77.417969 26.921875 76.859375 C 26.710938 76.53125 26.503906 76.199219 26.296875 75.867188 C 26.140625 75.617188 26.140625 75.617188 25.980469 75.363281 C 24.027344 72.183594 22.910156 68.71875 22.011719 65.121094 C 21.753906 65.058594 21.496094 64.996094 21.230469 64.933594 C 18.796875 64.34375 16.363281 63.75 13.929688 63.15625 C 12.679688 62.851562 11.429688 62.546875 10.179688 62.242188 C 8.972656 61.953125 7.765625 61.65625 6.558594 61.359375 C 6.097656 61.25 5.636719 61.136719 5.175781 61.027344 C 4.53125 60.871094 3.886719 60.710938 3.242188 60.554688 C 2.957031 60.484375 2.957031 60.484375 2.664062 60.417969 C 1.722656 60.179688 0.9375 59.972656 0.246094 59.269531 C 0.136719 58.542969 0.078125 58.054688 0.496094 57.429688 C 1.238281 56.882812 2.078125 56.730469 2.960938 56.519531 C 3.164062 56.46875 3.367188 56.417969 3.574219 56.367188 C 4.242188 56.203125 4.910156 56.042969 5.582031 55.882812 C 6.042969 55.769531 6.507812 55.652344 6.972656 55.539062 C 7.945312 55.300781 8.917969 55.066406 9.890625 54.828125 C 11.136719 54.527344 12.386719 54.222656 13.632812 53.917969 C 14.820312 53.625 16.011719 53.335938 17.199219 53.046875 C 17.425781 52.992188 17.652344 52.933594 17.890625 52.878906 C 18.53125 52.722656 19.171875 52.566406 19.816406 52.410156 C 20.007812 52.363281 20.199219 52.316406 20.394531 52.269531 C 21.710938 51.953125 21.710938 51.953125 22.257812 51.953125 C 22.289062 51.722656 22.289062 51.722656 22.320312 51.492188 C 23.082031 46.703125 25.28125 42.566406 27.882812 38.535156 C 26.875 36.648438 25.800781 34.808594 24.679688 32.984375 C 24.40625 32.535156 24.132812 32.089844 23.863281 31.640625 C 23.050781 30.308594 22.234375 28.976562 21.386719 27.664062 C 21.261719 27.464844 21.136719 27.265625 21.007812 27.0625 C 20.777344 26.707031 20.546875 26.351562 20.3125 26 C 19.644531 24.945312 19.402344 24.210938 19.566406 22.925781 C 20.054688 22.4375 20.054688 22.4375 20.789062 22.316406 C 22.132812 22.363281 23.164062 23.179688 24.261719 23.886719 C 24.757812 24.199219 25.253906 24.511719 25.753906 24.820312 C 26.015625 24.988281 26.28125 25.152344 26.550781 25.324219 C 27.898438 26.171875 29.261719 26.996094 30.625 27.820312 C 31.070312 28.089844 31.515625 28.363281 31.964844 28.632812 C 32.238281 28.800781 32.515625 28.96875 32.796875 29.140625 C 33.164062 29.363281 33.164062 29.363281 33.535156 29.589844 C 33.886719 29.792969 33.886719 29.792969 34.242188 30 C 34.496094 30.148438 34.746094 30.296875 35.007812 30.449219 C 35.667969 30.796875 35.667969 30.796875 36.207031 30.597656 C 36.425781 30.445312 36.425781 30.445312 36.652344 30.285156 C 36.824219 30.171875 36.992188 30.058594 37.167969 29.941406 C 37.347656 29.816406 37.527344 29.6875 37.710938 29.558594 C 39.238281 28.558594 40.75 27.6875 42.4375 26.980469 C 42.605469 26.910156 42.769531 26.835938 42.945312 26.761719 C 44.28125 26.21875 45.652344 25.839844 47.042969 25.460938 C 47.246094 25.402344 47.449219 25.347656 47.660156 25.289062 C 48.160156 25.152344 48.660156 25.015625 49.164062 24.878906 C 49.226562 24.617188 49.289062 24.355469 49.351562 24.085938 C 49.941406 21.628906 50.535156 19.167969 51.132812 16.710938 C 51.441406 15.449219 51.746094 14.183594 52.050781 12.917969 C 52.339844 11.699219 52.636719 10.480469 52.933594 9.261719 C 53.046875 8.796875 53.160156 8.332031 53.269531 7.863281 C 53.425781 7.210938 53.585938 6.5625 53.742188 5.910156 C 53.8125 5.621094 53.8125 5.621094 53.882812 5.324219 C 54.195312 4.0625 54.398438 3.261719 55.765625 3.0625 Z M 54.054688 17.316406 C 53.605469 19.113281 53.160156 20.910156 52.714844 22.703125 C 52.507812 23.539062 52.300781 24.371094 52.09375 25.207031 C 51.855469 26.164062 51.617188 27.125 51.378906 28.082031 C 51.304688 28.382812 51.230469 28.679688 51.152344 28.988281 C 51.082031 29.269531 51.015625 29.546875 50.945312 29.832031 C 50.882812 30.078125 50.824219 30.320312 50.761719 30.574219 C 50.597656 31.269531 50.597656 31.269531 50.628906 32.195312 C 51.839844 32.113281 53.050781 32.035156 54.296875 31.953125 C 54.296875 27.121094 54.296875 22.292969 54.296875 17.316406 C 54.21875 17.316406 54.136719 17.316406 54.054688 17.316406 Z M 57.234375 17.316406 C 57.234375 22.144531 57.234375 26.976562 57.234375 31.953125 C 58.445312 32.03125 59.65625 32.113281 60.902344 32.195312 C 60.734375 30.496094 60.351562 28.878906 59.9375 27.226562 C 59.867188 26.941406 59.796875 26.65625 59.726562 26.363281 C 59.503906 25.460938 59.277344 24.558594 59.054688 23.660156 C 58.902344 23.042969 58.75 22.429688 58.597656 21.816406 C 58.226562 20.316406 57.851562 18.816406 57.476562 17.316406 C 57.398438 17.316406 57.316406 17.316406 57.234375 17.316406 Z M 63.105469 28.292969 C 63.242188 29.003906 63.386719 29.714844 63.53125 30.425781 C 63.570312 30.628906 63.609375 30.828125 63.648438 31.035156 C 63.886719 32.175781 64.066406 32.949219 65.0625 33.660156 C 65.753906 34.027344 65.753906 34.027344 66.511719 34.3125 C 66.761719 34.414062 67.011719 34.515625 67.269531 34.621094 C 67.507812 34.707031 67.75 34.789062 67.996094 34.878906 C 68.1875 34.953125 68.375 35.03125 68.574219 35.109375 C 69.644531 35.128906 70.382812 34.5 71.25 33.917969 C 71.433594 33.800781 71.613281 33.683594 71.800781 33.5625 C 72.246094 33.273438 72.691406 32.976562 73.132812 32.683594 C 70.648438 30.59375 66.425781 28.292969 63.105469 28.292969 Z M 25.683594 28.535156 C 25.992188 29.355469 26.347656 30.097656 26.792969 30.851562 C 26.917969 31.0625 27.042969 31.269531 27.171875 31.488281 C 27.304688 31.710938 27.4375 31.933594 27.578125 32.164062 C 27.714844 32.398438 27.855469 32.632812 28 32.871094 C 29.964844 36.164062 31.957031 39.4375 33.996094 42.683594 C 34.746094 41.960938 35.433594 41.21875 36.105469 40.425781 C 37.230469 39.148438 38.523438 38.113281 39.867188 37.074219 C 39.023438 36.375 38.164062 35.777344 37.226562 35.214844 C 37.089844 35.132812 36.953125 35.050781 36.816406 34.96875 C 36.375 34.703125 35.9375 34.441406 35.496094 34.175781 C 35.035156 33.902344 34.578125 33.625 34.117188 33.347656 C 33.804688 33.160156 33.492188 32.972656 33.179688 32.785156 C 32.15625 32.167969 31.132812 31.546875 30.109375 30.917969 C 29.722656 30.683594 29.722656 30.683594 29.328125 30.441406 C 28.839844 30.140625 28.355469 29.839844 27.867188 29.539062 C 27.648438 29.40625 27.433594 29.273438 27.207031 29.136719 C 27.019531 29.019531 26.828125 28.90625 26.632812 28.785156 C 26.1875 28.5 26.1875 28.5 25.683594 28.535156 Z M 38.402344 32.4375 C 39.15625 33.21875 39.894531 33.785156 40.832031 34.34375 C 41.207031 34.574219 41.207031 34.574219 41.585938 34.804688 C 42.429688 35.171875 42.679688 35.160156 43.535156 34.878906 C 43.828125 34.796875 44.117188 34.71875 44.414062 34.636719 C 46.226562 34.019531 46.226562 34.019531 47.492188 32.667969 C 48.027344 31.304688 48.429688 29.761719 48.429688 28.292969 C 44.964844 28.292969 41.308594 30.84375 38.402344 32.4375 Z M 84.324219 29.136719 C 84.105469 29.269531 83.890625 29.402344 83.664062 29.539062 C 83.429688 29.6875 83.191406 29.832031 82.945312 29.984375 C 82.4375 30.296875 81.929688 30.609375 81.421875 30.917969 C 81.015625 31.167969 81.015625 31.167969 80.597656 31.425781 C 79.695312 31.976562 78.789062 32.523438 77.882812 33.066406 C 77.570312 33.253906 77.261719 33.441406 76.953125 33.625 C 76.496094 33.898438 76.042969 34.171875 75.585938 34.445312 C 75.160156 34.703125 74.734375 34.957031 74.308594 35.214844 C 73.941406 35.4375 73.941406 35.4375 73.566406 35.660156 C 72.894531 36.09375 72.28125 36.5625 71.664062 37.074219 C 71.964844 37.34375 71.964844 37.34375 72.273438 37.617188 C 74.050781 39.226562 75.710938 40.878906 77.289062 42.683594 C 77.980469 41.851562 78.5625 41.015625 79.109375 40.082031 C 79.265625 39.816406 79.421875 39.550781 79.585938 39.273438 C 79.707031 39.0625 79.707031 39.0625 79.832031 38.847656 C 80.265625 38.109375 80.699219 37.375 81.136719 36.636719 C 81.265625 36.414062 81.265625 36.414062 81.402344 36.1875 C 82.367188 34.558594 83.371094 32.949219 84.386719 31.351562 C 84.964844 30.433594 85.503906 29.570312 85.851562 28.535156 C 85.191406 28.535156 84.886719 28.792969 84.324219 29.136719 Z M 38.246094 42.230469 C 33.988281 46.714844 31.679688 52.863281 31.796875 59.023438 C 32.066406 65.894531 35.023438 71.847656 40 76.574219 C 44.457031 80.613281 50.625 82.59375 56.59375 82.433594 C 62.832031 82.128906 68.140625 79.652344 72.644531 75.367188 C 72.789062 75.238281 72.9375 75.109375 73.089844 74.976562 C 77.25 71.195312 79.347656 65.214844 79.707031 59.742188 C 79.984375 53.539062 77.984375 47.59375 73.867188 42.925781 C 73.679688 42.679688 73.492188 42.433594 73.300781 42.179688 C 69 37.492188 62.984375 35.101562 56.746094 34.632812 C 49.671875 34.453125 43.207031 37.238281 38.246094 42.230469 Z M 29.59375 41.21875 C 27.800781 43.71875 25.4375 48.105469 25.4375 51.21875 C 26.15625 51.070312 26.875 50.917969 27.59375 50.761719 C 27.796875 50.71875 28 50.675781 28.210938 50.632812 C 28.40625 50.589844 28.601562 50.546875 28.804688 50.503906 C 28.984375 50.464844 29.167969 50.429688 29.351562 50.390625 C 29.910156 50.25 29.910156 50.25 30.574219 49.757812 C 30.910156 49.125 31.207031 48.503906 31.492188 47.851562 C 31.570312 47.675781 31.652344 47.503906 31.734375 47.324219 C 32.054688 46.597656 32.285156 46.03125 32.28125 45.230469 C 31.933594 44.367188 31.457031 43.621094 30.941406 42.851562 C 30.839844 42.691406 30.738281 42.535156 30.632812 42.375 C 30.375 41.984375 30.109375 41.601562 29.839844 41.21875 C 29.757812 41.21875 29.679688 41.21875 29.59375 41.21875 Z M 81.691406 41.21875 C 81.238281 41.820312 80.84375 42.460938 80.4375 43.09375 C 80.320312 43.269531 80.203125 43.445312 80.082031 43.628906 C 79.433594 44.609375 79.433594 44.609375 79.246094 45.742188 C 79.328125 45.9375 79.40625 46.136719 79.492188 46.339844 C 79.664062 46.789062 79.664062 46.789062 79.839844 47.242188 C 79.980469 47.570312 80.125 47.894531 80.269531 48.214844 C 80.339844 48.382812 80.40625 48.546875 80.476562 48.714844 C 80.839844 49.519531 81.078125 49.941406 81.882812 50.332031 C 82.144531 50.382812 82.402344 50.433594 82.671875 50.488281 C 82.964844 50.554688 83.261719 50.625 83.5625 50.695312 C 84.015625 50.789062 84.015625 50.789062 84.476562 50.882812 C 84.933594 50.980469 84.933594 50.980469 85.398438 51.078125 C 85.628906 51.125 85.859375 51.171875 86.09375 51.21875 C 85.816406 49.546875 85.382812 48.046875 84.703125 46.492188 C 84.617188 46.292969 84.535156 46.09375 84.445312 45.890625 C 83.734375 44.265625 82.949219 42.683594 81.9375 41.21875 C 81.855469 41.21875 81.777344 41.21875 81.691406 41.21875 Z M 82.183594 53.171875 C 82.261719 54.457031 82.34375 55.746094 82.425781 57.074219 C 87.351562 57.074219 92.273438 57.074219 97.347656 57.074219 C 96.503906 56.652344 95.855469 56.429688 94.953125 56.214844 C 94.527344 56.113281 94.527344 56.113281 94.09375 56.007812 C 93.789062 55.9375 93.484375 55.863281 93.167969 55.789062 C 92.855469 55.714844 92.542969 55.640625 92.21875 55.5625 C 91.386719 55.363281 90.554688 55.167969 89.726562 54.96875 C 88.875 54.765625 88.027344 54.5625 87.175781 54.359375 C 85.511719 53.960938 83.847656 53.566406 82.183594 53.171875 Z M 26.980469 53.726562 C 26.703125 53.796875 26.421875 53.863281 26.136719 53.933594 C 25.6875 54.046875 25.6875 54.046875 25.226562 54.160156 C 24.765625 54.273438 24.765625 54.273438 24.292969 54.390625 C 23.476562 54.59375 22.660156 54.792969 21.84375 54.996094 C 21.007812 55.203125 20.171875 55.410156 19.339844 55.617188 C 17.703125 56.019531 16.066406 56.421875 14.429688 56.828125 C 14.429688 56.910156 14.429688 56.992188 14.429688 57.074219 C 19.273438 57.074219 24.117188 57.074219 29.105469 57.074219 C 29.1875 55.867188 29.265625 54.660156 29.351562 53.414062 C 28.464844 53.414062 27.832031 53.519531 26.980469 53.726562 Z M 14.1875 60 C 14.1875 60.082031 14.1875 60.160156 14.1875 60.242188 C 16.019531 60.691406 17.851562 61.136719 19.683594 61.578125 C 20.535156 61.785156 21.386719 61.992188 22.238281 62.199219 C 23.214844 62.4375 24.195312 62.675781 25.171875 62.910156 C 25.480469 62.984375 25.785156 63.0625 26.097656 63.136719 C 26.523438 63.242188 26.523438 63.242188 26.957031 63.34375 C 27.332031 63.4375 27.332031 63.4375 27.714844 63.527344 C 28.421875 63.691406 28.421875 63.691406 29.351562 63.660156 C 29.230469 61.847656 29.230469 61.847656 29.105469 60 C 24.183594 60 19.257812 60 14.1875 60 Z M 82.425781 60 C 82.304688 61.8125 82.304688 61.8125 82.183594 63.660156 C 83.886719 63.492188 85.503906 63.109375 87.164062 62.695312 C 87.449219 62.628906 87.734375 62.558594 88.027344 62.484375 C 88.933594 62.261719 89.839844 62.039062 90.742188 61.8125 C 91.359375 61.664062 91.972656 61.511719 92.589844 61.359375 C 94.09375 60.988281 95.597656 60.617188 97.101562 60.242188 C 97.101562 60.164062 97.101562 60.082031 97.101562 60 C 92.257812 60 87.417969 60 82.425781 60 Z M 25.4375 65.855469 C 25.714844 67.527344 26.148438 69.023438 26.828125 70.578125 C 26.914062 70.777344 27 70.976562 27.085938 71.183594 C 27.800781 72.816406 28.632812 74.347656 29.59375 75.855469 C 30.335938 75.195312 30.84375 74.398438 31.367188 73.566406 C 31.460938 73.429688 31.550781 73.292969 31.648438 73.148438 C 32.035156 72.535156 32.289062 72.09375 32.265625 71.355469 C 32.191406 71.152344 32.117188 70.945312 32.042969 70.730469 C 31.933594 70.4375 31.828125 70.140625 31.71875 69.839844 C 31.039062 68.074219 31.039062 68.074219 29.820312 66.6875 C 29.246094 66.496094 28.730469 66.40625 28.128906 66.339844 C 27.632812 66.246094 27.140625 66.148438 26.644531 66.050781 C 26.242188 65.984375 25.839844 65.917969 25.4375 65.855469 Z M 81.203125 67.074219 C 80.253906 68.089844 79.855469 69.417969 79.492188 70.730469 C 79.375 71.027344 79.375 71.027344 79.257812 71.328125 C 79.238281 72.382812 79.878906 73.125 80.453125 73.980469 C 80.570312 74.160156 80.691406 74.339844 80.8125 74.527344 C 81.101562 74.96875 81.398438 75.414062 81.691406 75.855469 C 82.492188 74.925781 83.078125 73.957031 83.617188 72.867188 C 83.746094 72.613281 83.746094 72.613281 83.871094 72.359375 C 85.445312 69.222656 85.445312 69.222656 86.09375 65.855469 C 84.484375 65.855469 82.605469 66.273438 81.203125 67.074219 Z M 33.996094 74.390625 C 33.660156 74.933594 33.339844 75.480469 33.019531 76.035156 C 31.933594 77.902344 30.824219 79.75 29.699219 81.59375 C 29.519531 81.890625 29.339844 82.183594 29.160156 82.480469 C 28.128906 84.179688 27.078125 85.867188 25.984375 87.53125 C 25.640625 88.019531 25.640625 88.019531 25.683594 88.535156 C 26.644531 88.183594 27.476562 87.730469 28.351562 87.195312 C 28.554688 87.070312 28.554688 87.070312 28.765625 86.945312 C 29.210938 86.671875 29.65625 86.402344 30.101562 86.128906 C 30.5625 85.847656 31.023438 85.5625 31.488281 85.28125 C 31.796875 85.09375 32.105469 84.90625 32.417969 84.714844 C 33.355469 84.140625 34.300781 83.574219 35.25 83.011719 C 35.472656 82.878906 35.691406 82.75 35.921875 82.613281 C 36.328125 82.371094 36.738281 82.132812 37.144531 81.890625 C 38.113281 81.320312 39.007812 80.730469 39.867188 80 C 39.667969 79.820312 39.464844 79.640625 39.257812 79.453125 C 37.644531 77.996094 36.125 76.507812 34.691406 74.875 C 34.542969 74.714844 34.394531 74.554688 34.242188 74.390625 C 34.160156 74.390625 34.082031 74.390625 33.996094 74.390625 Z M 77.289062 74.390625 C 76.976562 74.757812 76.667969 75.121094 76.359375 75.492188 C 74.933594 77.222656 73.472656 78.660156 71.664062 80 C 72.699219 80.882812 73.8125 81.554688 74.980469 82.242188 C 75.414062 82.496094 75.847656 82.753906 76.28125 83.011719 C 76.519531 83.152344 76.757812 83.292969 77 83.4375 C 77.863281 83.953125 78.722656 84.476562 79.582031 85 C 79.890625 85.1875 80.199219 85.375 80.511719 85.566406 C 80.96875 85.84375 81.429688 86.125 81.886719 86.40625 C 82.320312 86.671875 82.75 86.933594 83.183594 87.195312 C 83.429688 87.347656 83.679688 87.503906 83.9375 87.660156 C 84.566406 88.011719 85.175781 88.289062 85.851562 88.535156 C 85.46875 87.488281 84.941406 86.550781 84.367188 85.59375 C 84.265625 85.421875 84.164062 85.25 84.054688 85.070312 C 82.3125 82.148438 80.535156 79.242188 78.757812 76.339844 C 78.628906 76.128906 78.5 75.921875 78.371094 75.703125 C 78.097656 75.261719 77.816406 74.824219 77.535156 74.390625 C 77.453125 74.390625 77.375 74.390625 77.289062 74.390625 Z M 41.386719 82.484375 C 41.210938 82.59375 41.039062 82.703125 40.859375 82.816406 C 40.679688 82.933594 40.496094 83.050781 40.3125 83.171875 C 40.035156 83.34375 40.035156 83.34375 39.753906 83.523438 C 39.304688 83.8125 38.851562 84.101562 38.402344 84.390625 C 39.351562 85.207031 40.324219 85.777344 41.441406 86.328125 C 41.613281 86.410156 41.785156 86.496094 41.960938 86.582031 C 44.023438 87.582031 46.144531 88.457031 48.429688 88.78125 C 48.289062 88.066406 48.148438 87.355469 48 86.644531 C 47.960938 86.445312 47.921875 86.242188 47.882812 86.035156 C 47.644531 84.894531 47.46875 84.117188 46.472656 83.414062 C 45.894531 83.121094 45.339844 82.863281 44.746094 82.621094 C 44.589844 82.554688 44.4375 82.492188 44.28125 82.421875 C 43.089844 81.925781 42.480469 81.785156 41.386719 82.484375 Z M 66.527344 82.699219 C 66.351562 82.765625 66.171875 82.832031 65.992188 82.902344 C 65.027344 83.304688 64.644531 83.53125 64.109375 84.457031 C 63.839844 85.363281 63.609375 86.253906 63.425781 87.179688 C 63.363281 87.480469 63.300781 87.78125 63.238281 88.09375 C 63.195312 88.320312 63.148438 88.546875 63.105469 88.78125 C 66.347656 88.136719 69.917969 86.78125 72.644531 84.878906 C 72.722656 84.636719 72.804688 84.394531 72.886719 84.144531 C 72.292969 83.777344 71.695312 83.414062 71.097656 83.046875 C 70.84375 82.890625 70.84375 82.890625 70.585938 82.730469 C 70.425781 82.632812 70.261719 82.535156 70.09375 82.429688 C 69.941406 82.339844 69.792969 82.246094 69.640625 82.152344 C 68.566406 81.636719 67.539062 82.277344 66.527344 82.699219 Z M 50.628906 84.878906 C 50.796875 86.578125 51.179688 88.191406 51.59375 89.847656 C 51.664062 90.132812 51.734375 90.414062 51.808594 90.707031 C 52.03125 91.609375 52.253906 92.511719 52.480469 93.414062 C 52.632812 94.027344 52.785156 94.640625 52.9375 95.257812 C 53.308594 96.757812 53.679688 98.257812 54.054688 99.757812 C 54.136719 99.757812 54.214844 99.757812 54.296875 99.757812 C 54.296875 94.925781 54.296875 90.097656 54.296875 85.121094 C 53.089844 85.042969 51.878906 84.960938 50.628906 84.878906 Z M 57.234375 85.121094 C 57.234375 89.953125 57.234375 94.78125 57.234375 99.757812 C 57.636719 98.957031 57.859375 98.351562 58.070312 97.5 C 58.132812 97.242188 58.199219 96.988281 58.261719 96.722656 C 58.332031 96.449219 58.398438 96.175781 58.464844 95.890625 C 58.570312 95.46875 58.570312 95.46875 58.679688 95.035156 C 58.824219 94.433594 58.972656 93.835938 59.117188 93.238281 C 59.34375 92.320312 59.570312 91.402344 59.796875 90.488281 C 59.9375 89.90625 60.082031 89.324219 60.222656 88.742188 C 60.292969 88.46875 60.359375 88.191406 60.429688 87.910156 C 60.492188 87.65625 60.554688 87.398438 60.617188 87.136719 C 60.671875 86.910156 60.726562 86.6875 60.785156 86.457031 C 60.933594 85.796875 60.933594 85.796875 60.902344 84.878906 C 59.675781 84.878906 58.453125 85 57.234375 85.121094 Z M 57.234375 85.121094 "/>
<path style=" stroke:none;fill-rule:nonzero;fill:rgb(64.313728%,64.705884%,65.098041%);fill-opacity:1;" d="M 67.015625 46.585938 C 67.476562 46.859375 67.476562 46.859375 67.75 47.316406 C 67.851562 48.476562 67.632812 49.199219 67.113281 50.230469 C 66.90625 50.648438 66.90625 50.648438 66.695312 51.078125 C 66.621094 51.222656 66.546875 51.371094 66.46875 51.523438 C 66.152344 52.152344 65.839844 52.785156 65.527344 53.414062 C 65.367188 53.742188 65.203125 54.070312 65.042969 54.398438 C 64.246094 56.007812 63.488281 57.636719 62.738281 59.269531 C 61.675781 61.558594 60.605469 63.847656 59.511719 66.125 C 59.359375 66.4375 59.210938 66.753906 59.058594 67.070312 C 58.851562 67.507812 58.640625 67.941406 58.433594 68.378906 C 58.253906 68.75 58.253906 68.75 58.070312 69.132812 C 57.75 69.707031 57.515625 70.097656 56.988281 70.488281 C 56.117188 70.457031 56.117188 70.457031 55.277344 70.242188 C 54.726562 69.421875 54.660156 68.933594 54.527344 67.960938 C 54.484375 67.652344 54.441406 67.347656 54.398438 67.027344 C 54.375 66.867188 54.355469 66.707031 54.332031 66.542969 C 54.269531 66.058594 54.199219 65.574219 54.132812 65.089844 C 53.925781 63.542969 53.75 62.046875 53.808594 60.488281 C 53.605469 60.480469 53.398438 60.46875 53.1875 60.460938 C 51.246094 60.355469 49.332031 60.160156 47.40625 59.894531 C 47.183594 59.863281 46.960938 59.832031 46.730469 59.804688 C 46.519531 59.773438 46.3125 59.742188 46.09375 59.710938 C 45.90625 59.683594 45.722656 59.660156 45.527344 59.632812 C 44.953125 59.5 44.523438 59.34375 44.027344 59.023438 C 43.765625 58.203125 43.765625 58.203125 43.78125 57.316406 C 44.605469 56.527344 45.515625 56.046875 46.542969 55.558594 C 46.691406 55.484375 46.835938 55.414062 46.988281 55.339844 C 47.472656 55.109375 47.957031 54.878906 48.445312 54.648438 C 48.785156 54.488281 49.125 54.324219 49.464844 54.160156 C 51.949219 52.976562 54.441406 51.8125 56.941406 50.667969 C 58.359375 50.015625 59.769531 49.351562 61.171875 48.664062 C 61.449219 48.527344 61.726562 48.390625 62.015625 48.25 C 62.542969 47.992188 63.070312 47.730469 63.59375 47.464844 C 63.832031 47.347656 64.066406 47.234375 64.308594 47.113281 C 64.515625 47.011719 64.71875 46.910156 64.929688 46.804688 C 65.664062 46.546875 66.246094 46.527344 67.015625 46.585938 Z M 62.859375 51.21875 C 62.515625 51.382812 62.515625 51.382812 62.160156 51.546875 C 58.238281 53.390625 54.3125 55.230469 50.386719 57.074219 C 50.386719 57.152344 50.386719 57.234375 50.386719 57.316406 C 50.613281 57.34375 50.613281 57.34375 50.84375 57.371094 C 51.53125 57.457031 52.21875 57.546875 52.90625 57.636719 C 53.144531 57.664062 53.386719 57.695312 53.632812 57.722656 C 53.976562 57.769531 53.976562 57.769531 54.328125 57.816406 C 54.539062 57.84375 54.75 57.871094 54.96875 57.898438 C 55.621094 58.074219 55.863281 58.234375 56.253906 58.78125 C 56.40625 59.332031 56.40625 59.332031 56.488281 59.972656 C 56.535156 60.316406 56.535156 60.316406 56.582031 60.664062 C 56.609375 60.902344 56.636719 61.140625 56.667969 61.386719 C 56.699219 61.628906 56.730469 61.871094 56.765625 62.117188 C 56.84375 62.710938 56.917969 63.308594 56.988281 63.902344 C 57.796875 62.960938 58.261719 61.863281 58.785156 60.75 C 58.886719 60.539062 58.984375 60.324219 59.089844 60.105469 C 59.410156 59.433594 59.726562 58.753906 60.046875 58.078125 C 60.367188 57.40625 60.683594 56.730469 61.003906 56.054688 C 61.203125 55.636719 61.398438 55.21875 61.597656 54.800781 C 61.734375 54.511719 61.734375 54.511719 61.871094 54.21875 C 62 53.945312 62 53.945312 62.128906 53.671875 C 62.347656 53.21875 62.582031 52.773438 62.820312 52.328125 C 62.914062 52.125 63.007812 51.917969 63.105469 51.707031 C 62.984375 51.464844 62.984375 51.464844 62.859375 51.21875 Z M 62.859375 51.21875 "/>
<path style=" stroke:none;fill-rule:nonzero;fill:rgb(32.549021%,58.431375%,83.529413%);fill-opacity:1;" d="M 10.515625 135.855469 C 11.890625 135.855469 13.261719 135.855469 14.675781 135.855469 C 14.675781 136.09375 14.675781 136.335938 14.675781 136.585938 C 14.273438 136.585938 13.867188 136.585938 13.453125 136.585938 C 13.453125 137.792969 13.453125 139 13.453125 140.242188 C 14.0625 139.699219 14.667969 139.148438 15.273438 138.597656 C 15.445312 138.441406 15.617188 138.289062 15.796875 138.128906 C 16.042969 137.902344 16.042969 137.902344 16.292969 137.671875 C 16.445312 137.535156 16.601562 137.394531 16.757812 137.253906 C 17.207031 136.792969 17.207031 136.792969 17.367188 135.855469 C 18.253906 135.855469 19.140625 135.855469 20.054688 135.855469 C 20.054688 136.09375 20.054688 136.335938 20.054688 136.585938 C 19.804688 136.679688 19.554688 136.773438 19.296875 136.867188 C 18.292969 137.300781 17.5625 137.902344 16.769531 138.644531 C 16.636719 138.761719 16.503906 138.875 16.367188 138.996094 C 15.941406 139.378906 15.941406 139.378906 15.410156 140 C 15.308594 140.941406 15.308594 140.941406 15.757812 141.414062 C 15.914062 141.558594 16.074219 141.703125 16.238281 141.855469 C 16.414062 142.015625 16.585938 142.171875 16.765625 142.339844 C 16.949219 142.503906 17.132812 142.667969 17.320312 142.835938 C 17.5 143 17.679688 143.167969 17.867188 143.339844 C 18.578125 143.988281 19.253906 144.589844 20.054688 145.121094 C 20.621094 145.042969 21.1875 144.960938 21.769531 144.878906 C 21.769531 142.140625 21.769531 139.40625 21.769531 136.585938 C 21.363281 136.585938 20.960938 136.585938 20.546875 136.585938 C 20.546875 136.34375 20.546875 136.101562 20.546875 135.855469 C 21.515625 135.855469 22.484375 135.855469 23.480469 135.855469 C 24.703125 138.292969 25.925781 140.730469 27.148438 143.171875 C 27.597656 142.246094 28.046875 141.320312 28.496094 140.398438 C 28.648438 140.082031 28.800781 139.769531 28.953125 139.453125 C 29.171875 139.003906 29.390625 138.550781 29.609375 138.097656 C 29.742188 137.824219 29.875 137.554688 30.007812 137.273438 C 30.34375 136.589844 30.34375 136.589844 30.574219 135.855469 C 31.542969 135.855469 32.511719 135.855469 33.507812 135.855469 C 33.507812 136.09375 33.507812 136.335938 33.507812 136.585938 C 33.1875 136.664062 32.863281 136.746094 32.53125 136.828125 C 32.449219 139.566406 32.367188 142.300781 32.285156 145.121094 C 32.6875 145.203125 33.09375 145.28125 33.507812 145.367188 C 33.507812 145.527344 33.507812 145.6875 33.507812 145.855469 C 32.136719 145.855469 30.765625 145.855469 29.351562 145.855469 C 29.351562 145.691406 29.351562 145.53125 29.351562 145.367188 C 29.753906 145.203125 30.15625 145.042969 30.574219 144.878906 C 30.574219 142.867188 30.574219 140.855469 30.574219 138.78125 C 30.125 139.703125 29.675781 140.628906 29.230469 141.554688 C 29.074219 141.867188 28.921875 142.183594 28.769531 142.496094 C 28.550781 142.949219 28.332031 143.402344 28.113281 143.855469 C 27.980469 144.125 27.847656 144.398438 27.714844 144.679688 C 27.378906 145.363281 27.378906 145.363281 27.148438 146.097656 C 26.90625 146.097656 26.664062 146.097656 26.414062 146.097656 C 25.285156 143.683594 24.15625 141.269531 22.992188 138.78125 C 22.992188 140.792969 22.992188 142.804688 22.992188 144.878906 C 23.394531 145.039062 23.796875 145.199219 24.214844 145.367188 C 24.214844 145.527344 24.214844 145.6875 24.214844 145.855469 C 23.234375 145.902344 22.257812 145.933594 21.277344 145.960938 C 20.867188 145.980469 20.867188 145.980469 20.445312 146.003906 C 18.988281 146.035156 18.058594 145.988281 16.921875 145.023438 C 16.460938 144.5625 16.460938 144.5625 16.144531 144.144531 C 16.144531 143.984375 16.144531 143.824219 16.144531 143.660156 C 16.003906 143.597656 15.863281 143.535156 15.71875 143.46875 C 14.757812 142.953125 14.015625 142.1875 13.207031 141.464844 C 13.289062 142.671875 13.371094 143.878906 13.453125 145.121094 C 13.855469 145.203125 14.257812 145.28125 14.675781 145.367188 C 14.675781 145.527344 14.675781 145.6875 14.675781 145.855469 C 13.304688 145.855469 11.929688 145.855469 10.515625 145.855469 C 10.515625 145.691406 10.515625 145.53125 10.515625 145.367188 C 11.121094 145.246094 11.121094 145.246094 11.742188 145.121094 C 11.660156 142.386719 11.578125 139.648438 11.496094 136.828125 C 11.171875 136.75 10.851562 136.667969 10.515625 136.585938 C 10.515625 136.34375 10.515625 136.101562 10.515625 135.855469 Z M 10.515625 135.855469 "/>
<path style=" stroke:none;fill-rule:nonzero;fill:rgb(32.941177%,58.823532%,83.529413%);fill-opacity:1;" d="M 54.789062 135.855469 C 55.78125 135.839844 56.773438 135.832031 57.769531 135.824219 C 58.050781 135.820312 58.332031 135.816406 58.621094 135.8125 C 58.894531 135.808594 59.164062 135.808594 59.445312 135.804688 C 59.695312 135.804688 59.945312 135.800781 60.203125 135.796875 C 61.160156 135.875 61.859375 136.097656 62.570312 136.753906 C 63.050781 137.6875 62.996094 138.582031 62.691406 139.574219 C 62.257812 140.152344 61.792969 140.417969 61.148438 140.730469 C 60.90625 140.730469 60.664062 140.730469 60.414062 140.730469 C 61.3125 142.453125 62.445312 144.277344 64.082031 145.367188 C 64.082031 145.527344 64.082031 145.6875 64.082031 145.855469 C 63.316406 145.980469 62.644531 146.011719 61.882812 145.855469 C 61.164062 145.292969 60.691406 144.601562 60.183594 143.855469 C 60.046875 143.667969 59.910156 143.480469 59.765625 143.289062 C 59.121094 142.394531 58.550781 141.546875 58.210938 140.488281 C 58.386719 140.441406 58.558594 140.394531 58.738281 140.34375 C 59.074219 140.25 59.074219 140.25 59.417969 140.152344 C 59.644531 140.089844 59.867188 140.027344 60.097656 139.964844 C 60.699219 139.8125 60.699219 139.8125 60.902344 139.269531 C 60.917969 138.894531 60.921875 138.515625 60.917969 138.140625 C 60.914062 137.941406 60.914062 137.742188 60.910156 137.535156 C 60.910156 137.382812 60.90625 137.230469 60.902344 137.074219 C 60.503906 137.027344 60.109375 136.980469 59.710938 136.9375 C 59.488281 136.910156 59.265625 136.886719 59.039062 136.859375 C 58.453125 136.78125 58.453125 136.78125 57.96875 137.074219 C 57.96875 139.648438 57.96875 142.222656 57.96875 144.878906 C 58.371094 145.039062 58.773438 145.199219 59.191406 145.367188 C 59.191406 145.527344 59.191406 145.6875 59.191406 145.855469 C 57.738281 145.855469 56.285156 145.855469 54.789062 145.855469 C 54.789062 145.691406 54.789062 145.53125 54.789062 145.367188 C 55.191406 145.203125 55.59375 145.042969 56.011719 144.878906 C 56.011719 142.222656 56.011719 139.566406 56.011719 136.828125 C 55.605469 136.75 55.203125 136.667969 54.789062 136.585938 C 54.789062 136.34375 54.789062 136.101562 54.789062 135.855469 Z M 54.789062 135.855469 "/>
<path style=" stroke:none;fill-rule:nonzero;fill:rgb(32.941177%,58.823532%,83.529413%);fill-opacity:1;" d="M 84.382812 135.855469 C 86.804688 135.855469 89.226562 135.855469 91.722656 135.855469 C 91.722656 137.5625 91.722656 137.5625 91.476562 138.292969 C 91.316406 138.292969 91.152344 138.292969 90.988281 138.292969 C 90.90625 137.808594 90.824219 137.328125 90.742188 136.828125 C 89.613281 136.828125 88.484375 136.828125 87.316406 136.828125 C 87.398438 137.957031 87.480469 139.082031 87.5625 140.242188 C 88.371094 140.242188 89.175781 140.242188 90.007812 140.242188 C 90.007812 139.921875 90.007812 139.601562 90.007812 139.269531 C 90.25 139.269531 90.492188 139.269531 90.742188 139.269531 C 90.742188 140.316406 90.742188 141.359375 90.742188 142.4375 C 90.5 142.4375 90.257812 142.4375 90.007812 142.4375 C 89.929688 142.117188 89.847656 141.796875 89.765625 141.464844 C 88.875 141.382812 87.988281 141.300781 87.074219 141.21875 C 87.074219 142.507812 87.074219 143.796875 87.074219 145.121094 C 89.132812 145 89.132812 145 91.230469 144.878906 C 91.3125 144.394531 91.394531 143.914062 91.476562 143.414062 C 91.71875 143.414062 91.960938 143.414062 92.210938 143.414062 C 92.128906 144.21875 92.046875 145.023438 91.964844 145.855469 C 89.625 145.855469 87.285156 145.855469 84.871094 145.855469 C 84.871094 145.691406 84.871094 145.53125 84.871094 145.367188 C 85.113281 145.246094 85.113281 145.246094 85.363281 145.121094 C 85.363281 142.386719 85.363281 139.648438 85.363281 136.828125 C 85.039062 136.75 84.714844 136.667969 84.382812 136.585938 C 84.382812 136.34375 84.382812 136.101562 84.382812 135.855469 Z M 84.382812 135.855469 "/>
<path style=" stroke:none;fill-rule:nonzero;fill:rgb(32.549021%,58.431375%,83.529413%);fill-opacity:1;" d="M 69.464844 135.855469 C 69.707031 135.855469 69.949219 135.855469 70.195312 135.855469 C 70.308594 136.125 70.421875 136.394531 70.539062 136.675781 C 70.960938 137.679688 71.386719 138.679688 71.816406 139.683594 C 72 140.117188 72.183594 140.550781 72.363281 140.984375 C 72.625 141.609375 72.890625 142.234375 73.160156 142.855469 C 73.238281 143.050781 73.320312 143.246094 73.402344 143.445312 C 73.519531 143.71875 73.519531 143.71875 73.640625 143.996094 C 73.707031 144.152344 73.773438 144.3125 73.84375 144.476562 C 74.179688 144.984375 74.53125 145.136719 75.089844 145.367188 C 75.089844 145.527344 75.089844 145.6875 75.089844 145.855469 C 73.796875 145.855469 72.507812 145.855469 71.175781 145.855469 C 71.175781 145.691406 71.175781 145.53125 71.175781 145.367188 C 71.660156 145.246094 71.660156 145.246094 72.152344 145.121094 C 71.789062 143.914062 71.789062 143.914062 71.417969 142.683594 C 70.128906 142.761719 68.835938 142.84375 67.507812 142.925781 C 67.265625 143.570312 67.023438 144.214844 66.773438 144.878906 C 67.09375 145.039062 67.417969 145.199219 67.75 145.367188 C 67.75 145.527344 67.75 145.6875 67.75 145.855469 C 66.621094 145.855469 65.492188 145.855469 64.328125 145.855469 C 64.328125 145.691406 64.328125 145.53125 64.328125 145.367188 C 64.476562 145.3125 64.625 145.253906 64.777344 145.199219 C 65.46875 144.78125 65.621094 144.386719 65.945312 143.652344 C 66.117188 143.277344 66.117188 143.277344 66.289062 142.898438 C 66.402344 142.636719 66.515625 142.375 66.636719 142.105469 C 66.75 141.851562 66.863281 141.597656 66.980469 141.339844 C 67.671875 139.789062 68.332031 138.226562 68.976562 136.652344 C 69.21875 136.097656 69.21875 136.097656 69.464844 135.855469 Z M 69.21875 138.292969 C 68.734375 139.5 68.25 140.707031 67.75 141.953125 C 68.800781 141.953125 69.851562 141.953125 70.929688 141.953125 C 70.523438 140.667969 70.105469 139.480469 69.464844 138.292969 C 69.382812 138.292969 69.300781 138.292969 69.21875 138.292969 Z M 69.21875 138.292969 "/>
<path style=" stroke:none;fill-rule:nonzero;fill:rgb(33.725491%,58.823532%,82.745099%);fill-opacity:1;" d="M 73.867188 135.855469 C 75.15625 135.855469 76.449219 135.855469 77.777344 135.855469 C 77.777344 136.09375 77.777344 136.335938 77.777344 136.585938 C 77.375 136.585938 76.972656 136.585938 76.554688 136.585938 C 76.628906 136.773438 76.703125 136.964844 76.78125 137.160156 C 77.054688 137.863281 77.328125 138.566406 77.601562 139.269531 C 77.777344 139.722656 77.957031 140.175781 78.132812 140.628906 C 78.242188 140.914062 78.351562 141.199219 78.46875 141.492188 C 78.570312 141.753906 78.671875 142.019531 78.777344 142.289062 C 79.003906 142.925781 79.003906 142.925781 79.003906 143.414062 C 79.164062 143.414062 79.324219 143.414062 79.492188 143.414062 C 79.527344 143.183594 79.527344 143.183594 79.558594 142.949219 C 79.808594 141.882812 80.203125 140.886719 80.59375 139.863281 C 80.746094 139.449219 80.902344 139.039062 81.058594 138.628906 C 81.128906 138.445312 81.195312 138.265625 81.265625 138.078125 C 81.441406 137.585938 81.574219 137.09375 81.691406 136.585938 C 81.085938 136.464844 81.085938 136.464844 80.46875 136.339844 C 80.46875 136.179688 80.46875 136.019531 80.46875 135.855469 C 81.601562 135.855469 82.730469 135.855469 83.894531 135.855469 C 83.894531 136.09375 83.894531 136.335938 83.894531 136.585938 C 83.652344 136.664062 83.410156 136.746094 83.160156 136.828125 C 82.859375 137.429688 82.601562 138.007812 82.355469 138.632812 C 82.28125 138.8125 82.210938 138.996094 82.132812 139.183594 C 81.898438 139.765625 81.664062 140.347656 81.433594 140.929688 C 81.199219 141.511719 80.964844 142.089844 80.730469 142.667969 C 80.585938 143.03125 80.4375 143.390625 80.292969 143.753906 C 79.976562 144.550781 79.652344 145.335938 79.246094 146.097656 C 78.796875 146.066406 78.796875 146.066406 78.269531 145.855469 C 77.925781 145.234375 77.925781 145.234375 77.617188 144.414062 C 77.449219 143.96875 77.449219 143.96875 77.273438 143.511719 C 77.15625 143.195312 77.039062 142.878906 76.921875 142.5625 C 76.015625 140.128906 76.015625 140.128906 75.050781 137.722656 C 74.980469 137.550781 74.910156 137.382812 74.839844 137.207031 C 74.601562 136.742188 74.601562 136.742188 73.867188 136.585938 C 73.867188 136.34375 73.867188 136.101562 73.867188 135.855469 Z M 73.867188 135.855469 "/>
<path style=" stroke:none;fill-rule:nonzero;fill:rgb(32.156864%,58.823532%,83.529413%);fill-opacity:1;" d="M 45.984375 135.855469 C 48.726562 135.855469 51.472656 135.855469 54.296875 135.855469 C 54.296875 136.660156 54.296875 137.464844 54.296875 138.292969 C 54.054688 138.292969 53.8125 138.292969 53.566406 138.292969 C 53.566406 137.808594 53.566406 137.328125 53.566406 136.828125 C 52.757812 136.828125 51.949219 136.828125 51.117188 136.828125 C 51.117188 139.566406 51.117188 142.300781 51.117188 145.121094 C 51.523438 145.203125 51.925781 145.28125 52.34375 145.367188 C 52.34375 145.527344 52.34375 145.6875 52.34375 145.855469 C 50.96875 145.855469 49.597656 145.855469 48.183594 145.855469 C 48.183594 145.691406 48.183594 145.53125 48.183594 145.367188 C 48.789062 145.246094 48.789062 145.246094 49.40625 145.121094 C 49.40625 142.386719 49.40625 139.648438 49.40625 136.828125 C 48.601562 136.828125 47.792969 136.828125 46.960938 136.828125 C 46.878906 137.3125 46.800781 137.796875 46.714844 138.292969 C 46.472656 138.292969 46.230469 138.292969 45.984375 138.292969 C 45.984375 137.488281 45.984375 136.683594 45.984375 135.855469 Z M 45.984375 135.855469 "/>
<path style=" stroke:none;fill-rule:nonzero;fill:rgb(32.156864%,58.431375%,83.92157%);fill-opacity:1;" d="M 92.699219 135.855469 C 94.152344 135.855469 95.605469 135.855469 97.101562 135.855469 C 97.101562 136.09375 97.101562 136.335938 97.101562 136.585938 C 96.699219 136.664062 96.292969 136.746094 95.878906 136.828125 C 95.796875 139.566406 95.71875 142.300781 95.632812 145.121094 C 97.691406 145 97.691406 145 99.792969 144.878906 C 99.953125 144.316406 100.113281 143.75 100.28125 143.171875 C 100.441406 143.171875 100.605469 143.171875 100.769531 143.171875 C 100.769531 144.054688 100.769531 144.941406 100.769531 145.855469 C 98.347656 145.855469 95.925781 145.855469 93.433594 145.855469 C 93.59375 145.453125 93.753906 145.046875 93.921875 144.632812 C 93.960938 143.996094 93.980469 143.390625 93.96875 142.753906 C 93.96875 142.578125 93.96875 142.402344 93.96875 142.21875 C 93.964844 141.65625 93.957031 141.09375 93.953125 140.535156 C 93.949219 140.152344 93.949219 139.769531 93.945312 139.386719 C 93.941406 138.453125 93.933594 137.519531 93.921875 136.585938 C 93.519531 136.585938 93.113281 136.585938 92.699219 136.585938 C 92.699219 136.34375 92.699219 136.101562 92.699219 135.855469 Z M 92.699219 135.855469 "/>
<path style=" stroke:none;fill-rule:nonzero;fill:rgb(32.156864%,58.431375%,83.92157%);fill-opacity:1;" d="M 33.996094 135.855469 C 35.449219 135.855469 36.902344 135.855469 38.402344 135.855469 C 38.402344 136.09375 38.402344 136.335938 38.402344 136.585938 C 37.996094 136.664062 37.59375 136.746094 37.175781 136.828125 C 37.097656 139.566406 37.015625 142.300781 36.933594 145.121094 C 38.992188 145 38.992188 145 41.089844 144.878906 C 41.253906 144.316406 41.414062 143.75 41.582031 143.171875 C 41.742188 143.171875 41.902344 143.171875 42.070312 143.171875 C 42.070312 144.054688 42.070312 144.941406 42.070312 145.855469 C 39.648438 145.855469 37.226562 145.855469 34.730469 145.855469 C 34.894531 145.453125 35.054688 145.046875 35.222656 144.632812 C 35.261719 143.996094 35.277344 143.390625 35.269531 142.753906 C 35.269531 142.578125 35.265625 142.402344 35.265625 142.21875 C 35.265625 141.65625 35.257812 141.09375 35.25 140.535156 C 35.25 140.152344 35.246094 139.769531 35.246094 139.386719 C 35.238281 138.453125 35.230469 137.519531 35.222656 136.585938 C 34.816406 136.585938 34.414062 136.585938 33.996094 136.585938 C 33.996094 136.34375 33.996094 136.101562 33.996094 135.855469 Z M 33.996094 135.855469 "/>
</g>
</svg>
