<?xml version="1.0" encoding="UTF-8"?>
<svg xmlns="http://www.w3.org/2000/svg" xmlns:xlink="http://www.w3.org/1999/xlink" width="40px" height="40px" viewBox="0 0 40 40" version="1.1">
<g id="surface1">
<path style=" stroke:none;fill-rule:nonzero;fill:rgb(64.705884%,64.705884%,65.098041%);fill-opacity:1;" d="M 19.742188 0.394531 C 20 0.433594 20 0.433594 20.136719 0.574219 C 20.28125 0.816406 20.34375 1.027344 20.410156 1.296875 C 20.4375 1.402344 20.460938 1.507812 20.488281 1.617188 C 20.515625 1.730469 20.546875 1.847656 20.574219 1.960938 C 20.601562 2.082031 20.632812 2.199219 20.660156 2.320312 C 20.738281 2.632812 20.816406 2.949219 20.894531 3.265625 C 20.957031 3.519531 21.019531 3.769531 21.082031 4.023438 C 21.128906 4.207031 21.171875 4.390625 21.21875 4.578125 C 21.277344 4.820312 21.339844 5.0625 21.398438 5.304688 C 21.53125 5.832031 21.65625 6.355469 21.746094 6.890625 C 21.859375 7.691406 21.859375 7.691406 22.300781 8.332031 C 22.585938 8.453125 22.839844 8.507812 23.144531 8.554688 C 23.347656 8.601562 23.550781 8.648438 23.753906 8.699219 C 23.855469 8.71875 23.953125 8.742188 24.054688 8.761719 C 24.425781 8.855469 24.753906 8.996094 25.09375 9.175781 C 25.144531 9.207031 25.199219 9.234375 25.253906 9.261719 C 25.796875 9.558594 26.320312 9.882812 26.839844 10.214844 C 27.480469 9.875 28.105469 9.515625 28.722656 9.132812 C 28.808594 9.082031 28.890625 9.03125 28.980469 8.976562 C 29.433594 8.703125 29.886719 8.421875 30.335938 8.136719 C 30.421875 8.082031 30.511719 8.023438 30.605469 7.96875 C 30.773438 7.859375 30.945312 7.75 31.113281 7.640625 C 31.554688 7.367188 31.855469 7.183594 32.382812 7.273438 C 32.554688 7.445312 32.554688 7.445312 32.601562 7.699219 C 32.582031 8.203125 32.257812 8.609375 31.996094 9.019531 C 31.910156 9.160156 31.910156 9.160156 31.824219 9.300781 C 31.699219 9.5 31.574219 9.703125 31.453125 9.902344 C 31.144531 10.390625 30.847656 10.886719 30.546875 11.378906 C 30.449219 11.539062 30.351562 11.699219 30.257812 11.859375 C 30.195312 11.957031 30.136719 12.050781 30.078125 12.152344 C 30.023438 12.238281 29.972656 12.324219 29.917969 12.414062 C 29.875 12.488281 29.828125 12.5625 29.785156 12.640625 C 29.726562 12.730469 29.726562 12.730469 29.667969 12.824219 C 29.589844 12.988281 29.589844 12.988281 29.675781 13.15625 C 29.734375 13.246094 29.734375 13.246094 29.796875 13.339844 C 29.839844 13.40625 29.882812 13.476562 29.929688 13.546875 C 29.976562 13.617188 30.027344 13.691406 30.074219 13.765625 C 30.453125 14.363281 30.777344 14.953125 31.039062 15.613281 C 31.078125 15.707031 31.078125 15.707031 31.117188 15.808594 C 31.28125 16.242188 31.40625 16.679688 31.523438 17.128906 C 31.539062 17.1875 31.554688 17.246094 31.574219 17.308594 C 31.609375 17.457031 31.648438 17.601562 31.6875 17.75 C 31.777344 17.769531 31.863281 17.792969 31.953125 17.8125 C 32.78125 18.011719 33.609375 18.210938 34.4375 18.414062 C 34.863281 18.515625 35.289062 18.617188 35.714844 18.722656 C 36.125 18.820312 36.539062 18.917969 36.949219 19.019531 C 37.105469 19.058594 37.261719 19.09375 37.417969 19.132812 C 37.636719 19.183594 37.859375 19.238281 38.078125 19.292969 C 38.175781 19.316406 38.175781 19.316406 38.273438 19.339844 C 39.113281 19.546875 39.113281 19.546875 39.394531 19.828125 C 39.433594 20.296875 39.433594 20.296875 39.28125 20.488281 C 39.035156 20.6875 38.726562 20.730469 38.421875 20.800781 C 38.347656 20.820312 38.277344 20.839844 38.199219 20.855469 C 37.960938 20.914062 37.71875 20.972656 37.480469 21.027344 C 37.3125 21.070312 37.148438 21.109375 36.980469 21.148438 C 36.542969 21.257812 36.101562 21.363281 35.664062 21.464844 C 35.21875 21.574219 34.769531 21.683594 34.324219 21.789062 C 33.445312 22.003906 32.566406 22.214844 31.6875 22.425781 C 31.675781 22.476562 31.660156 22.527344 31.644531 22.578125 C 31.582031 22.8125 31.515625 23.046875 31.449219 23.28125 C 31.425781 23.363281 31.40625 23.441406 31.382812 23.523438 C 31.003906 24.867188 30.378906 26.03125 29.609375 27.1875 C 29.917969 27.777344 30.253906 28.351562 30.59375 28.921875 C 30.636719 28.996094 30.679688 29.066406 30.726562 29.140625 C 30.960938 29.535156 31.203125 29.921875 31.449219 30.308594 C 31.574219 30.511719 31.703125 30.714844 31.832031 30.917969 C 31.925781 31.0625 32.019531 31.210938 32.113281 31.355469 C 32.171875 31.445312 32.230469 31.535156 32.289062 31.628906 C 32.363281 31.75 32.363281 31.75 32.445312 31.875 C 32.578125 32.175781 32.585938 32.398438 32.554688 32.726562 C 32.382812 32.902344 32.382812 32.902344 32.121094 32.941406 C 31.65625 32.925781 31.3125 32.652344 30.9375 32.402344 C 30.773438 32.296875 30.613281 32.195312 30.449219 32.089844 C 30.367188 32.039062 30.285156 31.984375 30.203125 31.929688 C 29.824219 31.691406 29.441406 31.460938 29.058594 31.234375 C 28.917969 31.148438 28.773438 31.0625 28.632812 30.980469 C 28.566406 30.9375 28.496094 30.898438 28.425781 30.855469 C 28.105469 30.664062 27.789062 30.472656 27.46875 30.28125 C 27.363281 30.21875 27.253906 30.152344 27.148438 30.089844 C 27.074219 30.046875 27.003906 30.003906 26.925781 29.957031 C 26.820312 30.015625 26.71875 30.070312 26.613281 30.128906 C 26.539062 30.167969 26.46875 30.207031 26.394531 30.25 C 26.222656 30.347656 26.050781 30.449219 25.878906 30.550781 C 25.324219 30.886719 24.765625 31.167969 24.160156 31.40625 C 24.101562 31.429688 24.042969 31.453125 23.984375 31.476562 C 23.5625 31.636719 23.136719 31.757812 22.699219 31.871094 C 22.640625 31.886719 22.582031 31.902344 22.519531 31.917969 C 22.371094 31.957031 22.226562 31.996094 22.078125 32.035156 C 22.054688 32.121094 22.035156 32.210938 22.011719 32.300781 C 21.8125 33.128906 21.609375 33.960938 21.410156 34.789062 C 21.304688 35.214844 21.203125 35.640625 21.097656 36.066406 C 21 36.480469 20.898438 36.890625 20.800781 37.304688 C 20.761719 37.460938 20.722656 37.617188 20.683594 37.773438 C 20.632812 37.992188 20.578125 38.214844 20.523438 38.433594 C 20.507812 38.5 20.492188 38.5625 20.476562 38.628906 C 20.273438 39.46875 20.273438 39.46875 20 39.742188 C 19.554688 39.789062 19.554688 39.789062 19.347656 39.652344 C 19.152344 39.390625 19.097656 39.089844 19.023438 38.777344 C 19.007812 38.707031 18.988281 38.636719 18.96875 38.5625 C 18.910156 38.324219 18.855469 38.089844 18.796875 37.851562 C 18.757812 37.6875 18.71875 37.523438 18.675781 37.359375 C 18.59375 37.015625 18.507812 36.671875 18.425781 36.328125 C 18.316406 35.882812 18.207031 35.441406 18.101562 35 C 17.996094 34.578125 17.894531 34.160156 17.792969 33.738281 C 17.769531 33.660156 17.75 33.578125 17.730469 33.496094 C 17.675781 33.265625 17.621094 33.039062 17.566406 32.8125 C 17.546875 32.746094 17.53125 32.675781 17.515625 32.605469 C 17.402344 32.140625 17.402344 32.140625 17.402344 31.949219 C 17.351562 31.941406 17.304688 31.9375 17.253906 31.929688 C 15.792969 31.722656 14.171875 31.058594 13.015625 30.136719 C 12.753906 29.925781 12.753906 29.925781 12.511719 29.996094 C 12.441406 30.039062 12.367188 30.082031 12.292969 30.128906 C 12.15625 30.207031 12.15625 30.207031 12.015625 30.285156 C 11.90625 30.351562 11.792969 30.414062 11.683594 30.480469 C 11.621094 30.519531 11.558594 30.554688 11.496094 30.59375 C 10.640625 31.101562 9.792969 31.617188 8.945312 32.132812 C 8.851562 32.191406 8.753906 32.25 8.65625 32.308594 C 8.4375 32.445312 8.214844 32.585938 7.996094 32.726562 C 7.6875 32.910156 7.539062 32.957031 7.1875 32.902344 C 6.925781 32.726562 6.925781 32.726562 6.875 32.472656 C 6.898438 31.972656 7.222656 31.566406 7.484375 31.152344 C 7.542969 31.058594 7.597656 30.964844 7.65625 30.871094 C 7.78125 30.671875 7.90625 30.472656 8.027344 30.273438 C 8.335938 29.78125 8.632812 29.285156 8.933594 28.792969 C 9.03125 28.632812 9.128906 28.472656 9.222656 28.316406 C 9.285156 28.21875 9.34375 28.121094 9.402344 28.019531 C 9.457031 27.933594 9.507812 27.847656 9.5625 27.761719 C 9.605469 27.683594 9.652344 27.609375 9.695312 27.53125 C 9.734375 27.472656 9.773438 27.410156 9.808594 27.347656 C 9.828125 27.292969 9.851562 27.242188 9.871094 27.1875 C 9.765625 26.96875 9.660156 26.789062 9.527344 26.589844 C 9.457031 26.472656 9.382812 26.355469 9.308594 26.238281 C 9.253906 26.148438 9.253906 26.148438 9.195312 26.058594 C 8.503906 24.929688 8.109375 23.699219 7.792969 22.425781 C 7.699219 22.402344 7.609375 22.378906 7.515625 22.355469 C 6.652344 22.148438 5.792969 21.9375 4.929688 21.726562 C 4.488281 21.617188 4.046875 21.511719 3.601562 21.402344 C 3.175781 21.296875 2.75 21.195312 2.320312 21.089844 C 2.160156 21.050781 1.996094 21.007812 1.832031 20.96875 C 1.605469 20.914062 1.375 20.859375 1.148438 20.800781 C 1.046875 20.777344 1.046875 20.777344 0.941406 20.753906 C 0.609375 20.671875 0.332031 20.597656 0.0859375 20.347656 C 0.0507812 20.089844 0.0273438 19.914062 0.175781 19.691406 C 0.4375 19.5 0.734375 19.445312 1.046875 19.371094 C 1.121094 19.351562 1.191406 19.335938 1.265625 19.316406 C 1.5 19.257812 1.738281 19.199219 1.976562 19.144531 C 2.140625 19.105469 2.304688 19.0625 2.46875 19.023438 C 2.8125 18.9375 3.15625 18.855469 3.5 18.769531 C 3.941406 18.664062 4.382812 18.554688 4.828125 18.445312 C 5.246094 18.34375 5.667969 18.242188 6.089844 18.136719 C 6.167969 18.117188 6.25 18.097656 6.332031 18.078125 C 6.558594 18.023438 6.785156 17.96875 7.015625 17.910156 C 7.082031 17.894531 7.148438 17.878906 7.21875 17.863281 C 7.6875 17.75 7.6875 17.75 7.878906 17.75 C 7.890625 17.667969 7.890625 17.667969 7.902344 17.585938 C 8.171875 15.886719 8.949219 14.417969 9.871094 12.988281 C 9.515625 12.316406 9.132812 11.664062 8.738281 11.015625 C 8.640625 10.855469 8.542969 10.699219 8.445312 10.539062 C 8.160156 10.066406 7.871094 9.59375 7.570312 9.128906 C 7.527344 9.058594 7.480469 8.988281 7.4375 8.914062 C 7.355469 8.789062 7.273438 8.660156 7.191406 8.535156 C 6.953125 8.164062 6.867188 7.902344 6.925781 7.445312 C 7.097656 7.273438 7.097656 7.273438 7.359375 7.230469 C 7.835938 7.246094 8.199219 7.535156 8.585938 7.785156 C 8.765625 7.898438 8.941406 8.007812 9.117188 8.117188 C 9.210938 8.175781 9.300781 8.238281 9.398438 8.296875 C 9.875 8.597656 10.359375 8.890625 10.839844 9.183594 C 11 9.277344 11.15625 9.375 11.316406 9.472656 C 11.410156 9.53125 11.507812 9.589844 11.609375 9.652344 C 11.738281 9.730469 11.738281 9.730469 11.871094 9.8125 C 11.996094 9.882812 11.996094 9.882812 12.121094 9.957031 C 12.210938 10.007812 12.300781 10.0625 12.390625 10.117188 C 12.625 10.238281 12.625 10.238281 12.816406 10.167969 C 12.894531 10.113281 12.894531 10.113281 12.972656 10.058594 C 13.035156 10.015625 13.09375 9.976562 13.15625 9.9375 C 13.21875 9.890625 13.285156 9.847656 13.347656 9.800781 C 13.890625 9.445312 14.425781 9.136719 15.023438 8.886719 C 15.082031 8.859375 15.140625 8.832031 15.203125 8.808594 C 15.675781 8.613281 16.160156 8.480469 16.652344 8.34375 C 16.722656 8.324219 16.796875 8.304688 16.871094 8.285156 C 17.046875 8.234375 17.226562 8.1875 17.402344 8.136719 C 17.425781 8.046875 17.445312 7.953125 17.46875 7.859375 C 17.679688 6.984375 17.890625 6.113281 18.101562 5.238281 C 18.207031 4.789062 18.316406 4.34375 18.425781 3.894531 C 18.527344 3.460938 18.632812 3.027344 18.738281 2.59375 C 18.777344 2.429688 18.816406 2.265625 18.855469 2.097656 C 18.910156 1.867188 18.96875 1.636719 19.023438 1.40625 C 19.046875 1.300781 19.046875 1.300781 19.074219 1.199219 C 19.183594 0.75 19.257812 0.464844 19.742188 0.394531 Z M 19.132812 5.453125 C 18.976562 6.09375 18.816406 6.730469 18.660156 7.367188 C 18.585938 7.664062 18.511719 7.960938 18.441406 8.253906 C 18.355469 8.59375 18.269531 8.9375 18.1875 9.277344 C 18.160156 9.382812 18.132812 9.488281 18.105469 9.597656 C 18.082031 9.695312 18.058594 9.796875 18.035156 9.898438 C 18.011719 9.984375 17.992188 10.070312 17.96875 10.160156 C 17.910156 10.40625 17.910156 10.40625 17.921875 10.734375 C 18.351562 10.707031 18.777344 10.679688 19.222656 10.648438 C 19.222656 8.933594 19.222656 7.222656 19.222656 5.453125 C 19.191406 5.453125 19.164062 5.453125 19.132812 5.453125 Z M 20.257812 5.453125 C 20.257812 7.167969 20.257812 8.882812 20.257812 10.648438 C 20.6875 10.679688 21.117188 10.707031 21.558594 10.734375 C 21.5 10.132812 21.363281 9.558594 21.21875 8.972656 C 21.191406 8.871094 21.167969 8.769531 21.140625 8.667969 C 21.0625 8.347656 20.984375 8.027344 20.902344 7.707031 C 20.851562 7.488281 20.796875 7.269531 20.742188 7.050781 C 20.609375 6.519531 20.480469 5.988281 20.347656 5.453125 C 20.316406 5.453125 20.289062 5.453125 20.257812 5.453125 Z M 22.335938 9.351562 C 22.386719 9.605469 22.4375 9.855469 22.488281 10.109375 C 22.503906 10.179688 22.515625 10.25 22.53125 10.324219 C 22.617188 10.730469 22.679688 11.003906 23.03125 11.253906 C 23.277344 11.386719 23.277344 11.386719 23.542969 11.488281 C 23.632812 11.523438 23.722656 11.558594 23.8125 11.597656 C 23.898438 11.628906 23.980469 11.65625 24.070312 11.6875 C 24.136719 11.714844 24.203125 11.742188 24.273438 11.769531 C 24.652344 11.777344 24.914062 11.554688 25.222656 11.347656 C 25.285156 11.304688 25.351562 11.265625 25.417969 11.222656 C 25.574219 11.117188 25.730469 11.015625 25.886719 10.910156 C 25.007812 10.167969 23.515625 9.351562 22.335938 9.351562 Z M 9.089844 9.4375 C 9.199219 9.726562 9.324219 9.992188 9.484375 10.257812 C 9.527344 10.332031 9.574219 10.40625 9.617188 10.484375 C 9.664062 10.5625 9.714844 10.644531 9.761719 10.726562 C 9.8125 10.808594 9.859375 10.890625 9.910156 10.976562 C 10.605469 12.144531 11.3125 13.308594 12.035156 14.457031 C 12.300781 14.203125 12.542969 13.9375 12.78125 13.65625 C 13.179688 13.203125 13.636719 12.835938 14.113281 12.46875 C 13.8125 12.21875 13.507812 12.007812 13.175781 11.808594 C 13.128906 11.777344 13.082031 11.75 13.03125 11.71875 C 12.875 11.625 12.722656 11.53125 12.566406 11.4375 C 12.402344 11.339844 12.238281 11.242188 12.078125 11.144531 C 11.964844 11.078125 11.855469 11.011719 11.746094 10.945312 C 11.382812 10.726562 11.019531 10.503906 10.660156 10.28125 C 10.523438 10.199219 10.523438 10.199219 10.382812 10.113281 C 10.210938 10.007812 10.035156 9.898438 9.863281 9.792969 C 9.789062 9.746094 9.710938 9.699219 9.632812 9.652344 C 9.5625 9.609375 9.496094 9.566406 9.429688 9.523438 C 9.269531 9.421875 9.269531 9.421875 9.089844 9.4375 Z M 13.59375 10.824219 C 13.859375 11.097656 14.121094 11.300781 14.453125 11.5 C 14.585938 11.582031 14.585938 11.582031 14.722656 11.664062 C 15.019531 11.792969 15.109375 11.789062 15.410156 11.6875 C 15.515625 11.660156 15.617188 11.632812 15.722656 11.601562 C 16.363281 11.382812 16.363281 11.382812 16.8125 10.902344 C 17 10.421875 17.144531 9.871094 17.144531 9.351562 C 15.917969 9.351562 14.621094 10.257812 13.59375 10.824219 Z M 29.847656 9.652344 C 29.773438 9.699219 29.695312 9.746094 29.617188 9.792969 C 29.53125 9.84375 29.449219 9.898438 29.363281 9.953125 C 29.179688 10.0625 29 10.171875 28.820312 10.28125 C 28.675781 10.371094 28.675781 10.371094 28.53125 10.460938 C 28.210938 10.660156 27.890625 10.851562 27.570312 11.046875 C 27.460938 11.113281 27.347656 11.179688 27.238281 11.242188 C 27.078125 11.339844 26.917969 11.4375 26.757812 11.535156 C 26.605469 11.625 26.453125 11.71875 26.304688 11.808594 C 26.171875 11.886719 26.171875 11.886719 26.039062 11.964844 C 25.804688 12.121094 25.585938 12.285156 25.367188 12.46875 C 25.476562 12.5625 25.476562 12.5625 25.582031 12.660156 C 26.214844 13.230469 26.800781 13.820312 27.359375 14.457031 C 27.605469 14.164062 27.808594 13.867188 28.003906 13.535156 C 28.058594 13.441406 28.113281 13.347656 28.171875 13.25 C 28.214844 13.175781 28.214844 13.175781 28.257812 13.097656 C 28.414062 12.835938 28.566406 12.574219 28.71875 12.3125 C 28.765625 12.234375 28.765625 12.234375 28.816406 12.152344 C 29.15625 11.574219 29.511719 11.003906 29.871094 10.4375 C 30.074219 10.109375 30.265625 9.804688 30.390625 9.4375 C 30.15625 9.4375 30.046875 9.527344 29.847656 9.652344 Z M 13.539062 14.296875 C 12.03125 15.890625 11.214844 18.074219 11.253906 20.257812 C 11.351562 22.699219 12.398438 24.8125 14.160156 26.488281 C 15.738281 27.921875 17.921875 28.625 20.03125 28.570312 C 22.242188 28.460938 24.121094 27.582031 25.714844 26.0625 C 25.765625 26.015625 25.820312 25.96875 25.871094 25.921875 C 27.34375 24.578125 28.085938 22.457031 28.214844 20.515625 C 28.3125 18.3125 27.605469 16.203125 26.148438 14.546875 C 26.082031 14.457031 26.015625 14.371094 25.945312 14.28125 C 24.425781 12.617188 22.296875 11.769531 20.085938 11.601562 C 17.582031 11.539062 15.292969 12.527344 13.539062 14.296875 Z M 10.476562 13.9375 C 9.839844 14.824219 9.003906 16.382812 9.003906 17.488281 C 9.257812 17.4375 9.511719 17.382812 9.765625 17.328125 C 9.839844 17.3125 9.910156 17.296875 9.984375 17.28125 C 10.054688 17.265625 10.125 17.25 10.195312 17.234375 C 10.261719 17.222656 10.324219 17.207031 10.390625 17.195312 C 10.585938 17.144531 10.585938 17.144531 10.824219 16.96875 C 10.941406 16.746094 11.046875 16.527344 11.148438 16.292969 C 11.175781 16.230469 11.203125 16.171875 11.234375 16.105469 C 11.347656 15.847656 11.429688 15.648438 11.425781 15.363281 C 11.304688 15.058594 11.132812 14.792969 10.953125 14.519531 C 10.917969 14.460938 10.878906 14.40625 10.84375 14.347656 C 10.753906 14.210938 10.65625 14.074219 10.5625 13.9375 C 10.535156 13.9375 10.503906 13.9375 10.476562 13.9375 Z M 28.917969 13.9375 C 28.757812 14.152344 28.617188 14.378906 28.472656 14.605469 C 28.433594 14.667969 28.390625 14.730469 28.347656 14.792969 C 28.117188 15.144531 28.117188 15.144531 28.050781 15.542969 C 28.082031 15.613281 28.109375 15.683594 28.136719 15.757812 C 28.199219 15.917969 28.199219 15.917969 28.261719 16.078125 C 28.3125 16.191406 28.363281 16.308594 28.414062 16.421875 C 28.4375 16.480469 28.460938 16.539062 28.488281 16.601562 C 28.617188 16.886719 28.699219 17.035156 28.984375 17.171875 C 29.078125 17.191406 29.167969 17.210938 29.265625 17.230469 C 29.367188 17.253906 29.472656 17.277344 29.578125 17.304688 C 29.738281 17.335938 29.738281 17.335938 29.902344 17.371094 C 30.0625 17.402344 30.0625 17.402344 30.230469 17.4375 C 30.3125 17.457031 30.390625 17.472656 30.476562 17.488281 C 30.378906 16.894531 30.222656 16.363281 29.984375 15.8125 C 29.953125 15.742188 29.921875 15.671875 29.890625 15.597656 C 29.640625 15.019531 29.363281 14.460938 29.003906 13.9375 C 28.976562 13.9375 28.945312 13.9375 28.917969 13.9375 Z M 29.089844 18.183594 C 29.121094 18.640625 29.148438 19.097656 29.175781 19.566406 C 30.921875 19.566406 32.664062 19.566406 34.457031 19.566406 C 34.160156 19.417969 33.929688 19.339844 33.613281 19.261719 C 33.460938 19.226562 33.460938 19.226562 33.308594 19.191406 C 33.199219 19.164062 33.089844 19.136719 32.980469 19.113281 C 32.871094 19.085938 32.757812 19.058594 32.644531 19.03125 C 32.351562 18.960938 32.054688 18.890625 31.761719 18.820312 C 31.460938 18.75 31.160156 18.675781 30.859375 18.605469 C 30.269531 18.464844 29.679688 18.320312 29.089844 18.183594 Z M 9.550781 18.378906 C 9.453125 18.402344 9.351562 18.429688 9.25 18.453125 C 9.09375 18.492188 9.09375 18.492188 8.929688 18.535156 C 8.765625 18.574219 8.765625 18.574219 8.597656 18.613281 C 8.308594 18.6875 8.019531 18.757812 7.730469 18.832031 C 7.4375 18.902344 7.140625 18.976562 6.84375 19.050781 C 6.265625 19.191406 5.6875 19.335938 5.109375 19.480469 C 5.109375 19.507812 5.109375 19.539062 5.109375 19.566406 C 6.824219 19.566406 8.535156 19.566406 10.304688 19.566406 C 10.332031 19.136719 10.359375 18.710938 10.390625 18.269531 C 10.078125 18.269531 9.851562 18.304688 9.550781 18.378906 Z M 5.023438 20.605469 C 5.023438 20.632812 5.023438 20.664062 5.023438 20.691406 C 5.671875 20.851562 6.320312 21.007812 6.96875 21.167969 C 7.269531 21.238281 7.570312 21.3125 7.871094 21.386719 C 8.21875 21.472656 8.566406 21.554688 8.910156 21.640625 C 9.019531 21.667969 9.128906 21.691406 9.238281 21.71875 C 9.390625 21.757812 9.390625 21.757812 9.542969 21.792969 C 9.675781 21.824219 9.675781 21.824219 9.8125 21.859375 C 10.058594 21.914062 10.058594 21.914062 10.390625 21.90625 C 10.347656 21.261719 10.347656 21.261719 10.304688 20.605469 C 8.558594 20.605469 6.816406 20.605469 5.023438 20.605469 Z M 29.175781 20.605469 C 29.132812 21.25 29.132812 21.25 29.089844 21.90625 C 29.695312 21.84375 30.265625 21.710938 30.855469 21.5625 C 30.957031 21.539062 31.058594 21.515625 31.160156 21.488281 C 31.480469 21.410156 31.800781 21.328125 32.121094 21.25 C 32.339844 21.195312 32.558594 21.140625 32.773438 21.089844 C 33.308594 20.957031 33.839844 20.824219 34.371094 20.691406 C 34.371094 20.664062 34.371094 20.636719 34.371094 20.605469 C 32.65625 20.605469 30.945312 20.605469 29.175781 20.605469 Z M 9.003906 22.683594 C 9.101562 23.277344 9.257812 23.808594 9.496094 24.363281 C 9.527344 24.433594 9.558594 24.503906 9.589844 24.574219 C 9.839844 25.15625 10.136719 25.699219 10.476562 26.234375 C 10.738281 26 10.917969 25.714844 11.105469 25.421875 C 11.136719 25.375 11.167969 25.324219 11.203125 25.273438 C 11.339844 25.054688 11.429688 24.898438 11.421875 24.636719 C 11.394531 24.5625 11.367188 24.492188 11.34375 24.414062 C 11.304688 24.3125 11.265625 24.207031 11.226562 24.097656 C 10.988281 23.472656 10.988281 23.472656 10.554688 22.980469 C 10.351562 22.910156 10.167969 22.878906 9.957031 22.855469 C 9.78125 22.824219 9.605469 22.789062 9.433594 22.753906 C 9.289062 22.730469 9.148438 22.707031 9.003906 22.683594 Z M 28.746094 23.117188 C 28.410156 23.476562 28.269531 23.949219 28.136719 24.414062 C 28.097656 24.519531 28.097656 24.519531 28.054688 24.628906 C 28.050781 25 28.277344 25.265625 28.480469 25.566406 C 28.519531 25.632812 28.5625 25.695312 28.605469 25.761719 C 28.707031 25.921875 28.8125 26.078125 28.917969 26.234375 C 29.199219 25.90625 29.40625 25.558594 29.597656 25.171875 C 29.644531 25.082031 29.644531 25.082031 29.6875 24.992188 C 30.246094 23.878906 30.246094 23.878906 30.476562 22.683594 C 29.90625 22.683594 29.242188 22.832031 28.746094 23.117188 Z M 12.035156 25.714844 C 11.914062 25.90625 11.800781 26.101562 11.6875 26.296875 C 11.304688 26.960938 10.910156 27.617188 10.511719 28.269531 C 10.449219 28.375 10.386719 28.480469 10.324219 28.585938 C 9.957031 29.191406 9.585938 29.789062 9.199219 30.378906 C 9.078125 30.550781 9.078125 30.550781 9.089844 30.734375 C 9.429688 30.609375 9.726562 30.449219 10.035156 30.261719 C 10.109375 30.214844 10.109375 30.214844 10.183594 30.171875 C 10.339844 30.074219 10.496094 29.976562 10.65625 29.882812 C 10.820312 29.78125 10.980469 29.679688 11.144531 29.582031 C 11.253906 29.511719 11.363281 29.445312 11.476562 29.378906 C 11.808594 29.175781 12.140625 28.972656 12.476562 28.773438 C 12.554688 28.726562 12.636719 28.679688 12.714844 28.632812 C 12.859375 28.546875 13.003906 28.460938 13.148438 28.378906 C 13.492188 28.171875 13.808594 27.964844 14.113281 27.707031 C 14.042969 27.640625 13.96875 27.578125 13.898438 27.511719 C 13.324219 26.996094 12.789062 26.464844 12.28125 25.886719 C 12.226562 25.828125 12.175781 25.773438 12.121094 25.714844 C 12.09375 25.714844 12.0625 25.714844 12.035156 25.714844 Z M 27.359375 25.714844 C 27.25 25.84375 27.140625 25.972656 27.03125 26.105469 C 26.523438 26.71875 26.007812 27.230469 25.367188 27.707031 C 25.734375 28.019531 26.128906 28.257812 26.542969 28.5 C 26.695312 28.59375 26.847656 28.683594 27.003906 28.773438 C 27.085938 28.824219 27.171875 28.875 27.257812 28.925781 C 27.5625 29.109375 27.867188 29.292969 28.171875 29.480469 C 28.28125 29.546875 28.390625 29.613281 28.5 29.679688 C 28.660156 29.78125 28.824219 29.878906 28.988281 29.980469 C 29.140625 30.074219 29.292969 30.167969 29.445312 30.261719 C 29.535156 30.316406 29.621094 30.367188 29.710938 30.425781 C 29.933594 30.550781 30.152344 30.648438 30.390625 30.734375 C 30.253906 30.363281 30.066406 30.03125 29.863281 29.691406 C 29.828125 29.628906 29.792969 29.570312 29.753906 29.503906 C 29.136719 28.46875 28.507812 27.4375 27.878906 26.40625 C 27.832031 26.332031 27.789062 26.257812 27.742188 26.179688 C 27.644531 26.023438 27.546875 25.867188 27.445312 25.714844 C 27.417969 25.714844 27.390625 25.714844 27.359375 25.714844 Z M 14.648438 28.585938 C 14.589844 28.625 14.527344 28.664062 14.464844 28.707031 C 14.398438 28.746094 14.335938 28.789062 14.269531 28.832031 C 14.171875 28.894531 14.171875 28.894531 14.074219 28.957031 C 13.914062 29.058594 13.753906 29.160156 13.59375 29.265625 C 13.929688 29.554688 14.273438 29.757812 14.667969 29.953125 C 14.730469 29.980469 14.789062 30.011719 14.851562 30.042969 C 15.582031 30.398438 16.335938 30.707031 17.144531 30.824219 C 17.09375 30.570312 17.042969 30.316406 16.992188 30.066406 C 16.976562 29.992188 16.964844 29.921875 16.949219 29.847656 C 16.863281 29.441406 16.804688 29.167969 16.449219 28.917969 C 16.246094 28.8125 16.050781 28.722656 15.839844 28.636719 C 15.785156 28.613281 15.730469 28.589844 15.675781 28.566406 C 15.253906 28.390625 15.035156 28.339844 14.648438 28.585938 Z M 23.550781 28.664062 C 23.488281 28.6875 23.425781 28.710938 23.359375 28.734375 C 23.019531 28.878906 22.882812 28.957031 22.691406 29.289062 C 22.597656 29.609375 22.515625 29.925781 22.453125 30.253906 C 22.429688 30.363281 22.40625 30.46875 22.386719 30.578125 C 22.371094 30.660156 22.355469 30.738281 22.335938 30.824219 C 23.484375 30.59375 24.75 30.113281 25.714844 29.4375 C 25.742188 29.351562 25.769531 29.265625 25.800781 29.175781 C 25.589844 29.046875 25.378906 28.917969 25.167969 28.789062 C 25.078125 28.730469 25.078125 28.730469 24.988281 28.675781 C 24.929688 28.640625 24.871094 28.605469 24.8125 28.570312 C 24.757812 28.535156 24.707031 28.503906 24.652344 28.46875 C 24.269531 28.285156 23.90625 28.515625 23.550781 28.664062 Z M 17.921875 29.4375 C 17.980469 30.039062 18.117188 30.613281 18.261719 31.203125 C 18.289062 31.300781 18.3125 31.402344 18.339844 31.507812 C 18.417969 31.828125 18.496094 32.148438 18.578125 32.46875 C 18.628906 32.683594 18.683594 32.902344 18.738281 33.121094 C 18.871094 33.652344 19 34.1875 19.132812 34.71875 C 19.164062 34.71875 19.191406 34.71875 19.222656 34.71875 C 19.222656 33.003906 19.222656 31.289062 19.222656 29.523438 C 18.792969 29.496094 18.363281 29.464844 17.921875 29.4375 Z M 20.257812 29.523438 C 20.257812 31.238281 20.257812 32.953125 20.257812 34.71875 C 20.402344 34.433594 20.480469 34.21875 20.554688 33.917969 C 20.578125 33.828125 20.601562 33.734375 20.625 33.640625 C 20.648438 33.542969 20.671875 33.449219 20.695312 33.347656 C 20.734375 33.195312 20.734375 33.195312 20.769531 33.042969 C 20.824219 32.828125 20.875 32.617188 20.925781 32.40625 C 21.007812 32.078125 21.085938 31.753906 21.167969 31.429688 C 21.21875 31.222656 21.269531 31.015625 21.316406 30.808594 C 21.34375 30.710938 21.367188 30.613281 21.390625 30.511719 C 21.414062 30.421875 21.433594 30.332031 21.457031 30.238281 C 21.476562 30.160156 21.496094 30.078125 21.515625 29.996094 C 21.570312 29.761719 21.570312 29.761719 21.558594 29.4375 C 21.125 29.4375 20.691406 29.480469 20.257812 29.523438 Z M 20.257812 29.523438 "/>
<path style=" stroke:none;fill-rule:nonzero;fill:rgb(64.313728%,64.705884%,65.098041%);fill-opacity:1;" d="M 23.722656 15.84375 C 23.886719 15.941406 23.886719 15.941406 23.984375 16.105469 C 24.019531 16.515625 23.941406 16.773438 23.757812 17.136719 C 23.683594 17.285156 23.683594 17.285156 23.609375 17.4375 C 23.582031 17.492188 23.554688 17.542969 23.527344 17.597656 C 23.417969 17.820312 23.304688 18.042969 23.195312 18.269531 C 23.136719 18.386719 23.082031 18.5 23.023438 18.617188 C 22.742188 19.1875 22.472656 19.765625 22.207031 20.347656 C 21.832031 21.160156 21.453125 21.972656 21.066406 22.78125 C 21.011719 22.890625 20.960938 23.003906 20.90625 23.117188 C 20.832031 23.269531 20.757812 23.425781 20.683594 23.578125 C 20.621094 23.710938 20.621094 23.710938 20.554688 23.847656 C 20.441406 24.050781 20.359375 24.191406 20.171875 24.328125 C 19.863281 24.316406 19.863281 24.316406 19.566406 24.242188 C 19.371094 23.949219 19.347656 23.777344 19.300781 23.433594 C 19.285156 23.324219 19.269531 23.214844 19.253906 23.101562 C 19.25 23.042969 19.242188 22.988281 19.234375 22.929688 C 19.210938 22.757812 19.1875 22.585938 19.164062 22.414062 C 19.089844 21.863281 19.027344 21.332031 19.046875 20.777344 C 18.976562 20.777344 18.902344 20.773438 18.828125 20.769531 C 18.140625 20.730469 17.460938 20.664062 16.78125 20.566406 C 16.703125 20.558594 16.621094 20.546875 16.542969 20.535156 C 16.46875 20.523438 16.394531 20.515625 16.316406 20.503906 C 16.25 20.496094 16.183594 20.484375 16.117188 20.476562 C 15.914062 20.429688 15.761719 20.375 15.585938 20.257812 C 15.492188 19.96875 15.492188 19.96875 15.496094 19.652344 C 15.789062 19.375 16.113281 19.203125 16.476562 19.027344 C 16.527344 19.003906 16.578125 18.976562 16.632812 18.953125 C 16.804688 18.871094 16.976562 18.789062 17.148438 18.707031 C 17.269531 18.648438 17.390625 18.589844 17.511719 18.53125 C 18.390625 18.113281 19.269531 17.699219 20.15625 17.292969 C 20.660156 17.0625 21.15625 16.828125 21.652344 16.582031 C 21.75 16.535156 21.851562 16.484375 21.953125 16.433594 C 22.140625 16.34375 22.324219 16.25 22.511719 16.15625 C 22.59375 16.113281 22.679688 16.074219 22.765625 16.03125 C 22.835938 15.996094 22.910156 15.960938 22.984375 15.921875 C 23.242188 15.828125 23.449219 15.824219 23.722656 15.84375 Z M 22.25 17.488281 C 22.128906 17.546875 22.128906 17.546875 22.003906 17.605469 C 20.613281 18.257812 19.226562 18.914062 17.835938 19.566406 C 17.835938 19.59375 17.835938 19.625 17.835938 19.652344 C 17.917969 19.664062 17.917969 19.664062 18 19.671875 C 18.242188 19.703125 18.484375 19.734375 18.726562 19.765625 C 18.8125 19.777344 18.898438 19.789062 18.984375 19.796875 C 19.105469 19.816406 19.105469 19.816406 19.230469 19.832031 C 19.304688 19.839844 19.378906 19.851562 19.457031 19.859375 C 19.6875 19.921875 19.773438 19.980469 19.914062 20.171875 C 19.964844 20.371094 19.964844 20.371094 19.996094 20.597656 C 20.011719 20.71875 20.011719 20.71875 20.027344 20.84375 C 20.039062 20.925781 20.050781 21.011719 20.058594 21.097656 C 20.070312 21.183594 20.082031 21.269531 20.09375 21.359375 C 20.121094 21.570312 20.148438 21.78125 20.171875 21.992188 C 20.457031 21.65625 20.625 21.265625 20.808594 20.871094 C 20.84375 20.796875 20.878906 20.722656 20.917969 20.644531 C 21.03125 20.40625 21.144531 20.164062 21.253906 19.925781 C 21.367188 19.683594 21.480469 19.445312 21.59375 19.207031 C 21.664062 19.058594 21.734375 18.910156 21.804688 18.761719 C 21.851562 18.65625 21.851562 18.65625 21.902344 18.554688 C 21.945312 18.457031 21.945312 18.457031 21.992188 18.359375 C 22.070312 18.199219 22.152344 18.039062 22.238281 17.882812 C 22.269531 17.808594 22.304688 17.738281 22.335938 17.664062 C 22.292969 17.578125 22.292969 17.578125 22.25 17.488281 Z M 22.25 17.488281 "/>
</g>
</svg>
